# Made in Blockbench 4.9.4
mtllib bloodthrower.mtl

o cube
v 0.15625 0.1875 0.5
v 0.15625 0.1875 0.375
v 0.15625 -0.1875 0.5
v 0.15625 -0.1875 0.375
v -0.15625 0.1875 0.375
v -0.15625 0.1875 0.5
v -0.15625 -0.1875 0.375
v -0.15625 -0.1875 0.5
vt 0 0.625
vt 0.15625 0.625
vt 0.15625 0.4375
vt 0 0.4375
vt 0.21875 0.625
vt 0.15625 0.625
vt 0.15625 0.4375
vt 0.21875 0.4375
vt 0.21875 0.625
vt 0.375 0.625
vt 0.375 0.4375
vt 0.21875 0.4375
vt 0.15625 0.625
vt 0.21875 0.625
vt 0.21875 0.4375
vt 0.15625 0.4375
vt 0 0.4375
vt 0.15625 0.4375
vt 0.15625 0.375
vt 0 0.375
vt 0.34375 0.625
vt 0.34375 0.78125
vt 0.28125 0.78125
vt 0.28125 0.625
vn 0 0 -1
vn 1 0 0
vn 0 0 1
vn -1 0 0
vn 0 1 0
vn 0 -1 0
usemtl m_6049d02b-e52a-475c-8ccf-b274acf03c91
f 4/4/1 7/3/1 5/2/1 2/1/1
f 3/8/2 4/7/2 2/6/2 1/5/2
f 8/12/3 3/11/3 1/10/3 6/9/3
f 7/16/4 8/15/4 6/14/4 5/13/4
f 6/20/5 1/19/5 2/18/5 5/17/5
f 7/24/6 4/23/6 3/22/6 8/21/6
o cube
v 0.125 0.15625 0.375
v 0.125 0.15625 0.25
v 0.125 -0.15625 0.375
v 0.125 -0.15625 0.25
v -0.125 0.15625 0.25
v -0.125 0.15625 0.375
v -0.125 -0.15625 0.25
v -0.125 -0.15625 0.375
vt 0.34375 1
vt 0.46875 1
vt 0.46875 0.84375
vt 0.34375 0.84375
vt 0.34375 1
vt 0.28125 1
vt 0.28125 0.84375
vt 0.34375 0.84375
vt 0.28125 1
vt 0.34375 1
vt 0.34375 0.84375
vt 0.28125 0.84375
vt 0.28125 0.84375
vt 0.40625 0.84375
vt 0.40625 0.78125
vt 0.28125 0.78125
vt 0.28125 0.78125
vt 0.40625 0.78125
vt 0.40625 0.84375
vt 0.28125 0.84375
vn 0 0 -1
vn 1 0 0
vn -1 0 0
vn 0 1 0
vn 0 -1 0
usemtl m_6049d02b-e52a-475c-8ccf-b274acf03c91
f 12/28/7 15/27/7 13/26/7 10/25/7
f 11/32/8 12/31/8 10/30/8 9/29/8
f 15/36/9 16/35/9 14/34/9 13/33/9
f 14/40/10 9/39/10 10/38/10 13/37/10
f 15/44/11 12/43/11 11/42/11 16/41/11
o cube
v 0.0625 0.125 -0.1875
v 0.0625 0.125 -0.375
v 0.0625 -0.125 -0.1875
v 0.0625 -0.125 -0.3125
v -0.0625 0.125 -0.1875
v -0.0625 0.125 -0.375
v -0.0625 -0.125 -0.1875
v -0.0625 -0.125 -0.3125
vt 0.8125 0.546875
vt 0.84375 0.671875
vt 0.75 0.671875
vt 0.75 0.546875
vt 0.953125 0.546875
vt 0.953125 0.671875
vt 0.859375 0.671875
vt 0.890625 0.546875
vt 0.75 0.578125
vt 0.75 0.671875
vt 0.6875 0.671875
vt 0.6875 0.578125
vt 0.125 0.03125
vt 0.125 0.09375
vt 0.0625 0.09375
vt 0.0625 0.03125
vt 0.875 0.546875
vt 0.75 0.546875
vt 0.75 0.484375
vt 0.875 0.484375
vt 0.875 0.4843749999999999
vt 1 0.484375
vt 0.9999999999999998 0.546875
vt 0.875 0.546875
vn 1 0 0
vn -1 0 0
vn 0 1 0
vn 0 -1 0
vn 0 0 1
vn 0 -0.24253562503633297 -0.9701425001453319
usemtl m_6049d02b-e52a-475c-8ccf-b274acf03c91
f 20/45/12 18/46/12 17/47/12 19/48/12
f 23/49/13 21/50/13 22/51/13 24/52/13
f 17/53/14 18/54/14 22/55/14 21/56/14
f 20/57/15 19/58/15 23/59/15 24/60/15
f 19/61/16 17/62/16 21/63/16 23/64/16
f 24/65/17 22/66/17 18/67/17 20/68/17
o cube
v -0.15625000000000006 0.0625 -0.3125
v -0.15624999999999994 0.0625 0.375
v -0.15625000000000006 -0.0625 -0.3125
v -0.15624999999999994 -0.0625 0.375
v -0.062499999999999944 0.0625 0.375
v -0.06250000000000006 0.0625 -0.3125
v -0.062499999999999944 -0.0625 0.375
v -0.06250000000000006 -0.0625 -0.3125
vt 0.953125 0.609375
vt 1 0.609375
vt 1 0.546875
vt 0.953125 0.546875
vt 0.65625 0.78125
vt 1 0.78125
vt 1 0.71875
vt 0.65625 0.71875
vt 0.953125 0.671875
vt 1 0.671875
vt 1 0.609375
vt 0.953125 0.609375
vt 0.65625 0.671875
vt 0.65625 0.71875
vt 1 0.71875
vt 1 0.671875
vt 0.65625 0.671875
vt 0.65625 0.71875
vt 1 0.71875
vt 1 0.671875
vn 1.2246467991473532e-16 0 1
vn -1 0 1.2246467991473532e-16
vn -1.2246467991473532e-16 0 -1
vn 0 1 0
vn 0 -1 0
usemtl m_6049d02b-e52a-475c-8ccf-b274acf03c91
f 28/72/18 31/71/18 29/70/18 26/69/18
f 27/76/19 28/75/19 26/74/19 25/73/19
f 32/80/20 27/79/20 25/78/20 30/77/20
f 30/84/21 25/83/21 26/82/21 29/81/21
f 31/88/22 28/87/22 27/86/22 32/85/22
o cube
v 0.0625 0.1875 0.1875
v 0.0625 0.1875 -0.125
v 0.0625 -0.1875 0.1875
v 0.0625 -0.1875 -0.125
v -0.0625 0.1875 0.1875
v -0.0625 0.1875 -0.125
v -0.0625 -0.1875 0.1875
v -0.0625 -0.1875 -0.125
v -0.0625 -0.0625 0.25
v -0.0625 0.0625 0.25
v 0.0625 0.0625 0.25
v 0.0625 -0.0625 0.25
v -0.0625 0.0625 -0.1875
v 0.0625 0.0625 -0.1875
v -0.0625 -0.0625 -0.1875
v 0.0625 -0.0625 -0.1875
v -0.1875 0.0625 0.1875
v -0.1875 0.0625 -0.125
v -0.1875 -0.0625 0.1875
v -0.1875 -0.0625 -0.125
v 0.1875 0.0625 -0.125
v 0.1875 0.0625 0.1875
v 0.1875 -0.0625 -0.125
v 0.1875 -0.0625 0.1875
vt 0.84375 0.9375
vt 0.84375 1
vt 1 1
vt 1 0.9375
vt 1 0.9375
vt 1 1
vt 0.84375 1
vt 0.84375 0.9375
vt 0.84375 0.875
vt 1 0.875
vt 1 0.9375
vt 0.84375 0.9375
vt 1 0.875
vt 0.84375 0.875
vt 0.84375 0.9375
vt 1 0.9375
vt 0.84375 0.8125
vt 0.84375 0.875
vt 0.78125 0.875
vt 0.78125 0.8125
vt 0.84375 0.8125
vt 0.84375 0.875
vt 0.78125 0.875
vt 0.78125 0.8125
vt 0.78125 0.9375
vt 0.84375 0.9375
vt 0.84375 1
vt 0.78125 1
vt 0.78125 0.9375
vt 0.84375 0.9375
vt 0.84375 1
vt 0.78125 1
vt 0 1
vt 0 0.96875
vt 0.0625 0.96875
vt 0.0625 1
vt 0.78125 0.9375
vt 0.84375 0.9375
vt 0.84375 1
vt 0.78125 1
vt 0.78125 0.9375
vt 0.84375 0.9375
vt 0.84375 1
vt 0.78125 1
vt 0.84375 0.78125
vt 1 0.78125
vt 1 0.875
vt 0.84375 0.875
vt 1 0.78125
vt 0.84375 0.78125
vt 0.84375 0.875
vt 1 0.875
vt 0.78125 0.9375
vt 0.84375 0.9375
vt 0.84375 0.875
vt 0.78125 0.875
vt 0.78125 1
vt 0.71875 0.9375
vt 0.78125 0.9375
vt 0.71875 1
vt 0.71875 0.9375
vt 0.78125 0.9375
vt 0.71875 1
vt 0.71875 0.9375
vt 0.78125 0.9375
vt 0.71875 1
vt 0.71875 0.9375
vt 0.78125 0.9375
vt 1 0.78125
vt 0.84375 0.78125
vt 0.84375 0.875
vt 1 0.875
vt 0.84375 0.78125
vt 1 0.78125
vt 1 0.875
vt 0.84375 0.875
vt 0.71875 1
vt 0.71875 0.9375
vt 0.78125 0.9375
vt 0.78125 0.875
vt 0.84375 0.875
vt 0.84375 0.9375
vt 0.78125 0.9375
vt 0.71875 1
vt 0.71875 0.9375
vt 0.78125 0.9375
vt 0.71875 1
vt 0.71875 0.9375
vt 0.78125 0.9375
vt 0.78125 0.9375
vt 0.84375 0.9375
vt 0.84375 0.875
vt 0.78125 0.875
vt 0.71875 1
vt 0.71875 0.9375
vt 0.78125 0.9375
vt 0.78125 0.875
vt 0.78125 0.9375
vt 0.84375 0.9375
vt 0.84375 0.875
vn 1 0 0
vn -1 0 0
vn 0 1 0
vn 0 -1 0
vn 0 0 1
vn 0 0 -1
vn 0 -0.44721359549995804 0.8944271909999161
vn 0 0.44721359549995804 0.8944271909999161
vn 0 0.44721359549995804 -0.8944271909999161
vn 0 0.44721359549995804 -0.8944271909999161
vn 0 -0.44721359549995804 -0.8944271909999161
vn -0.7071067811865476 0.7071067811865476 0
vn -0.7071067811865476 -0.7071067811865476 0
vn -0.44721359549995804 0 0.8944271909999161
vn -0.4082482904638631 0.4082482904638631 0.8164965809277261
vn -0.4082482904638631 -0.4082482904638631 0.8164965809277261
vn -0.4082482904638631 -0.4082482904638631 -0.8164965809277261
vn -0.4082482904638631 0.4082482904638631 -0.8164965809277261
vn 0.7071067811865476 0.7071067811865476 0
vn 0.7071067811865476 -0.7071067811865476 0
vn 0.4082482904638631 0.4082482904638631 -0.8164965809277261
vn 0.44721359549995804 0 -0.8944271909999161
vn 0.4082482904638631 -0.4082482904638631 -0.8164965809277261
vn 0.4082482904638631 0.4082482904638631 0.8164965809277261
vn 0.44721359549995804 0 0.8944271909999161
vn 0.4082482904638631 -0.4082482904638631 0.8164965809277261
vn -0.44721359549995804 0 -0.8944271909999161
usemtl m_6049d02b-e52a-475c-8ccf-b274acf03c91
f 55/89/23 53/90/23 54/91/23 56/92/23
f 51/93/24 49/94/24 50/95/24 52/96/24
f 33/97/25 34/98/25 38/99/25 37/100/25
f 36/101/26 35/102/26 39/103/26 40/104/26
f 44/105/27 43/106/27 42/107/27 41/108/27
f 47/109/28 45/110/28 46/111/28 48/112/28
f 44/113/29 41/114/29 39/115/29 35/116/29
f 37/117/30 42/118/30 43/119/30 33/120/30
f 39/121/31 41/122/31 44/123/31 35/124/31
f 46/125/32 45/126/32 38/127/32 34/128/32
f 47/129/33 48/130/33 36/131/33 40/132/33
f 50/133/34 49/134/34 37/135/34 38/136/34
f 51/137/35 52/138/35 40/139/35 39/140/35
f 51/141/36 41/142/36 42/143/36 49/144/36
f 37/145/37 49/146/37 42/147/37
f 39/148/38 41/149/38 51/150/38
f 47/151/39 40/152/39 52/153/39
f 38/154/40 45/155/40 50/156/40
f 54/157/41 53/158/41 34/159/41 33/160/41
f 55/161/42 56/162/42 35/163/42 36/164/42
f 34/165/43 53/166/43 46/167/43
f 55/168/44 48/169/44 46/170/44 53/171/44
f 36/172/45 48/173/45 55/174/45
f 33/175/46 43/176/46 54/177/46
f 54/178/47 43/179/47 44/180/47 56/181/47
f 44/182/48 35/183/48 56/184/48
f 52/185/49 50/186/49 45/187/49 47/188/49
o cube
v -0.26516504294495535 0.26516504294495524 0.3125
v -0.26516504294495535 0.26516504294495524 -0.25
v 0.26516504294495535 -0.2651650429449553 0.3125
v 0.26516504294495535 -0.2651650429449553 -0.25
v -0.26516504294495535 0.26516504294495524 -0.25
v -0.26516504294495535 0.26516504294495524 0.3125
v 0.26516504294495535 -0.2651650429449553 -0.25
v 0.26516504294495535 -0.2651650429449553 0.3125
vt 0.28125 1
vt 0 1
vt 0 0.625
vt 0.28125 0.625
vt 0 1
vt 0.28125 1
vt 0.28125 0.625
vt 0 0.625
vn 0.7071067811865475 0.7071067811865476 0
vn -0.7071067811865475 -0.7071067811865476 0
usemtl m_6049d02b-e52a-475c-8ccf-b274acf03c91
f 59/192/50 60/191/50 58/190/50 57/189/50
f 63/196/51 64/195/51 62/194/51 61/193/51
o cube
v 0.26516504294495535 0.26516504294495524 0.3125
v 0.26516504294495535 0.26516504294495524 -0.25
v -0.26516504294495535 -0.2651650429449553 0.3125
v -0.26516504294495535 -0.2651650429449553 -0.25
v 0.26516504294495535 0.26516504294495524 -0.25
v 0.26516504294495535 0.26516504294495524 0.3125
v -0.26516504294495535 -0.2651650429449553 -0.25
v -0.26516504294495535 -0.2651650429449553 0.3125
vt 0.28125 1
vt 0 1
vt 0 0.625
vt 0.28125 0.625
vt 0 1
vt 0.28125 1
vt 0.28125 0.625
vt 0 0.625
vn 0.7071067811865475 -0.7071067811865476 0
vn -0.7071067811865475 0.7071067811865476 0
usemtl m_6049d02b-e52a-475c-8ccf-b274acf03c91
f 67/200/52 68/199/52 66/198/52 65/197/52
f 71/204/53 72/203/53 70/202/53 69/201/53
o cube
v 0.0625 0.0625 -0.3125
v 0.0625 0.0625 0.375
v 0.0625 -0.0625 -0.3125
v 0.0625 -0.0625 0.375
v 0.15625 0.0625 0.375
v 0.15625 0.0625 -0.31250000000000006
v 0.15625 -0.0625 0.375
v 0.15625 -0.0625 -0.31250000000000006
vt 0.953125 0.609375
vt 1 0.609375
vt 1 0.546875
vt 0.953125 0.546875
vt 1 0.671875
vt 0.953125 0.671875
vt 0.953125 0.609375
vt 1 0.609375
vt 0.65625 0.78125
vt 1 0.78125
vt 1 0.71875
vt 0.65625 0.71875
vt 0.65625 0.671875
vt 0.65625 0.71875
vt 1 0.71875
vt 1 0.671875
vt 0.65625 0.671875
vt 0.65625 0.71875
vt 1 0.71875
vt 1 0.671875
vn 1.2246467991473532e-16 0 1
vn -1.2246467991473532e-16 0 -1
vn 1 0 -1.2246467991473532e-16
vn 0 1 0
vn 0 -1 0
usemtl m_6049d02b-e52a-475c-8ccf-b274acf03c91
f 76/208/54 79/207/54 77/206/54 74/205/54
f 80/212/55 75/211/55 73/210/55 78/209/55
f 79/216/56 80/215/56 78/214/56 77/213/56
f 78/220/57 73/219/57 74/218/57 77/217/57
f 79/224/58 76/223/58 75/222/58 80/221/58