# Made in Blockbench 4.9.4
mtllib bosher.mtl

o cube
v 0.625 0.1875 0.984375
v 0.625 0.1875 0.9375
v 0.625 -0.125 0.984375
v 0.625 -0.125 0.9375
v 0.375 0.1875 0.9375
v 0.375 0.1875 0.984375
v 0.375 -0.125 0.9375
v 0.375 -0.125 0.984375
vt 0 1
vt 0 1
vt 0 1
vt 0 1
vt 0 1
vt 0.0546875 1
vt 0.0546875 0.84375
vt 0 0.84375
vt 0 1
vt 0.125 1
vt 0.125 0.84375
vt 0 0.84375
vt 0 1
vt 0.0546875 1
vt 0.0546875 0.84375
vt 0 0.84375
vt 0 1
vt 0.125 1
vt 0.125 0.9453125
vt 0 0.9453125
vt 0 1
vt 0.125 1
vt 0.125 0.9453125
vt 0 0.9453125
vn 0 0 -1
vn 1 0 0
vn 0 0 1
vn -1 0 0
vn 0 1 0
vn 0 -1 0
usemtl m_d58dc16f-dec6-1384-7e37-3d2f65479639
f 4/4/1 7/3/1 5/2/1 2/1/1
f 3/8/2 4/7/2 2/6/2 1/5/2
f 8/12/3 3/11/3 1/10/3 6/9/3
f 7/16/4 8/15/4 6/14/4 5/13/4
f 6/20/5 1/19/5 2/18/5 5/17/5
f 7/24/6 4/23/6 3/22/6 8/21/6
o cube_selection
v 0.6875 0.125 0.9375
v 0.6875 0.125 0.375
v 0.3125 0.125 0.9375
v 0.3125 0.125 0.375
v 0.375 0.25 0.375
v 0.375 0.25 0.9375
v 0.625 0.25 0.375
v 0.625 0.25 0.9375
v 0.6875 -0.1875 0.9375
v 0.6875 -0.1875 0.375
v 0.3125 -0.1875 0.9375
v 0.3125 -0.1875 0.375
v 0.375 0.25 0.625
v 0.3125 0.125 0.625
v 0.3125 -0.1875 0.625
v 0.6875 -0.1875 0.625
v 0.6875 0.125 0.625
v 0.625 0.25 0.625
v 0.6875 -0.25 0.375
v 0.3125 -0.25 0.625
v 0.6875 -0.25 0.625
v 0.3125 -0.25 0.375
vt 0 1
vt 0 0.796875
vt 0.0625 0.796875
vt 0.0625 1
vt 0.0625 1
vt 0.0625 0.796875
vt 0.125 0.796875
vt 0.125 1
vt 0.125 1
vt 0.125 0.796875
vt 0.125 0.796875
vt 0.125 1
vt 0.40625 1
vt 0.203125 1
vt 0.203125 0.8125
vt 0.40625 0.8125
vt 0.125 0.59375
vt 0.125 0.796875
vt 0 0.796875
vt 0 0.59375
vt 0.125 0.8125
vt 0.125 1
vt 0 1
vt 0 0.8125
vt 0.125 0.8125
vt 0.125 1
vt 0 1
vt 0 0.8125
vt 0.03125 1
vt 0 0.96875
vt 0.1875 0.96875
vt 0.15625 1
vt 0.03125 1
vt 0 0.96875
vt 0.1875 0.96875
vt 0.15625 1
vt 0 0.8125
vt 0.203125 0.8125
vt 0.203125 1
vt 0 1
vt 0.0625 0.59375
vt 0.0625 0.796875
vt 0 0.796875
vt 0 0.59375
vt 0.40625 1
vt 0.203125 1
vt 0.203125 0.8125
vt 0.40625 0.8125
vt 0 1
vt 0 0.796875
vt 0.125 0.796875
vt 0.125 1
vt 0 0.8125
vt 0.203125 0.8125
vt 0.203125 1
vt 0 1
vt 0.125 0.59375
vt 0.125 0.796875
vt 0.125 0.796875
vt 0.125 0.59375
vt 0.125 0.59375
vt 0.125 0.796875
vt 0.0625 0.796875
vt 0.0625 0.59375
vt 0 0.84375
vt 0.15625 0.84375
vt 0.15625 0.875
vt 0 0.875
vt 0 0.875
vt 0.1875 0.875
vt 0.1875 0.90625
vt 0 0.90625
vt 0 0.84375
vt 0.15625 0.84375
vt 0.15625 0.875
vt 0 0.875
vt 0 0.78125
vt 0.1875 0.78125
vt 0.1875 0.8125
vt 0 0.8125
vn -0.8944271909999161 0.44721359549995804 0
vn 0 1 0
vn 0.8944271909999161 0.44721359549995804 0
vn 1 0 0
vn 0 -1 0
vn 0 0 1
vn 0 0 -1
vn 0 0 1
vn 0 0 -1
vn -1 0 0
vn -0.8944271909999161 0.44721359549995804 0
vn -1 0 0
vn 0 -1 0
vn 1 0 0
vn 0.8944271909999161 0.44721359549995804 0
vn 0 1 0
vn 1 0 0
vn 0 0 1
vn -1 0 0
vn 0 0 -1
usemtl m_d58dc16f-dec6-1384-7e37-3d2f65479639
f 12/25/7 22/26/7 21/27/7 13/28/7
f 13/29/8 21/30/8 26/31/8 15/32/8
f 15/33/9 26/34/9 25/35/9 10/36/9
f 10/37/10 25/38/10 24/39/10 18/40/10
f 27/41/11 29/42/11 28/43/11 30/44/11
f 17/45/12 9/46/12 11/47/12 19/48/12
f 20/49/13 12/50/13 10/51/13 18/52/13
f 14/53/14 11/54/14 9/55/14 16/56/14
f 15/57/15 10/58/15 12/59/15 13/60/15
f 20/61/16 23/62/16 22/63/16 12/64/16
f 14/65/17 21/66/17 22/67/17 11/68/17
f 11/69/18 22/70/18 23/71/18 19/72/18
f 19/73/19 23/74/19 24/75/19 17/76/19
f 17/77/20 24/78/20 25/79/20 9/80/20
f 9/81/21 25/82/21 26/83/21 16/84/21
f 16/85/22 26/86/22 21/87/22 14/88/22
f 29/89/23 27/90/23 18/91/23 24/92/23
f 28/93/24 29/94/24 24/95/24 23/96/24
f 30/97/25 28/98/25 23/99/25 20/100/25
f 27/101/26 30/102/26 20/103/26 18/104/26
o cube
v 0.5625 -0.1875 1.0625
v 0.5625 -0.1875 0.625
v 0.5625 -0.25 1.0625
v 0.5625 -0.25 0.625
v 0.4375 -0.1875 0.625
v 0.4375 -0.1875 1.0625
v 0.4375 -0.25 0.625
v 0.4375 -0.25 1.0625
vt 0 1
vt 0.0625 1
vt 0.0625 0.96875
vt 0 0.96875
vt 0 1
vt 0.5 1
vt 0.5 0.96875
vt 0 0.96875
vt 0 1
vt 0.0625 1
vt 0.0625 0.96875
vt 0 0.96875
vt 0 1
vt 0.5 1
vt 0.5 0.96875
vt 0 0.96875
vt 0 1
vt 0 1
vt 0 1
vt 0 1
vt 0 1
vt 0.0625 1
vt 0.0625 0.5
vt 0 0.5
vn 0 0 -1
vn 1 0 0
vn 0 0 1
vn -1 0 0
vn 0 1 0
vn 0 -1 0
usemtl m_d58dc16f-dec6-1384-7e37-3d2f65479639
f 34/108/27 37/107/27 35/106/27 32/105/27
f 33/112/28 34/111/28 32/110/28 31/109/28
f 38/116/29 33/115/29 31/114/29 36/113/29
f 37/120/30 38/119/30 36/118/30 35/117/30
f 36/124/31 31/123/31 32/122/31 35/121/31
f 37/128/32 34/127/32 33/126/32 38/125/32