# Made in Blockbench 4.9.4
mtllib chugger.mtl

o cube_selection
v 0.1875 0.125 0.5
v 0.1875 0.125 -0.0625
v -0.1875 0.125 0.5
v -0.1875 0.125 -0.0625
v -0.125 0.25 -0.0625
v -0.125 0.25 0.5
v 0.125 0.25 -0.0625
v 0.125 0.25 0.5
v 0.1875 -0.25 0.5
v 0.1875 -0.25 -0.0625
v -0.1875 -0.25 0.5
v -0.1875 -0.25 -0.0625
v -0.125 0.25 0.1875
v -0.1875 0.125 0.1875
v -0.1875 -0.25 0.1875
v 0.1875 -0.25 0.1875
v 0.1875 0.125 0.1875
v 0.125 0.25 0.1875
vt 0 0
vt 0.25 0
vt 0.25 0.15625
vt 0 0.15625
vt 0.25 0.46875
vt 0 0.46875
vt 0 0.21875
vt 0.25 0.21875
vt 0 0.15625
vt 0.25 0.15625
vt 0.25 0
vt 0 0
vt 0 1
vt 0.25 1
vt 0.25 0.625
vt 0 0.625
vt 1 0.5
vt 1 0.875
vt 0.625 0.875
vt 0.625 0.5
vt 1 0.5
vt 1 0.875
vt 0.625 0.875
vt 0.625 0.5
vt 0.6875 1
vt 0.625 0.875
vt 1 0.875
vt 0.9375 1
vt 0.6875 1
vt 0.625 0.875
vt 1 0.875
vt 0.9375 1
vt 0 0.625
vt 0.25 0.625
vt 0.25 1
vt 0 1
vt 0.5625 0.15625
vt 0.25 0.15625
vt 0.25 0
vt 0.5625 0
vt 0.5625 1
vt 0.25 1
vt 0.25 0.625
vt 0.5625 0.625
vt 0.25 0.15625
vt 0.5625 0.15625
vt 0.5625 0.53125
vt 0.25 0.53125
vt 0.5625 0.625
vt 0.25 0.625
vt 0.25 1
vt 0.5625 1
vt 0.5625 0
vt 0.25 0
vt 0.25 0.15625
vt 0.5625 0.15625
vt 0.25 0.21875
vt 0.5625 0.21875
vt 0.5625 0.46875
vt 0.25 0.46875
vt 0.25 0.53125
vt 0 0.53125
vt 0 0.15625
vt 0.25 0.15625
vn -0.8944271909999161 0.44721359549995804 0
vn 0 1 0
vn 0.8944271909999161 0.44721359549995804 0
vn 1 0 0
vn 0 0 1
vn 0 0 -1
vn 0 0 1
vn 0 0 -1
vn -1 0 0
vn -0.8944271909999161 0.44721359549995804 0
vn -1 0 0
vn 0 -1 0
vn 1 0 0
vn 0.8944271909999161 0.44721359549995804 0
vn 0 1 0
vn 0 -1 0
usemtl m_a4b9f2ff-75de-2721-05c0-7f589a444e05
f 4/1/1 14/2/1 13/3/1 5/4/1
f 5/5/2 13/6/2 18/7/2 7/8/2
f 7/9/3 18/10/3 17/11/3 2/12/3
f 2/13/4 17/14/4 16/15/4 10/16/4
f 9/17/5 1/18/5 3/19/5 11/20/5
f 12/21/6 4/22/6 2/23/6 10/24/6
f 6/25/7 3/26/7 1/27/7 8/28/7
f 7/29/8 2/30/8 4/31/8 5/32/8
f 12/33/9 15/34/9 14/35/9 4/36/9
f 6/37/10 13/38/10 14/39/10 3/40/10
f 3/41/11 14/42/11 15/43/11 11/44/11
f 11/45/12 15/46/12 16/47/12 9/48/12
f 9/49/13 16/50/13 17/51/13 1/52/13
f 1/53/14 17/54/14 18/55/14 8/56/14
f 8/57/15 18/58/15 13/59/15 6/60/15
f 10/61/16 16/62/16 15/63/16 12/64/16
o cube
v 0.0625 0.125 -0.0625
v 0.0625 0.125 -0.09375
v 0.0625 0 -0.0625
v 0.0625 0 -0.09375
v -0.0625 0.125 -0.09375
v -0.0625 0.125 -0.0625
v -0.0625 0 -0.09375
v -0.0625 0 -0.0625
vt 0.875 0.125
vt 1 0.125
vt 1 0
vt 0.875 0
vt 0.96875 0.125
vt 1 0.125
vt 1 0
vt 0.96875 0
vt 0.96875 0.125
vt 1 0.125
vt 1 0
vt 0.96875 0
vt 0.875 0.125
vt 1 0.125
vt 1 0.09375
vt 0.875 0.09375
vt 0.875 0.125
vt 1 0.125
vt 1 0.09375
vt 0.875 0.09375
vn 0 0 -1
vn 1 0 0
vn -1 0 0
vn 0 1 0
vn 0 -1 0
usemtl m_a4b9f2ff-75de-2721-05c0-7f589a444e05
f 22/68/17 25/67/17 23/66/17 20/65/17
f 21/72/18 22/71/18 20/70/18 19/69/18
f 25/76/19 26/75/19 24/74/19 23/73/19
f 24/80/20 19/79/20 20/78/20 23/77/20
f 25/84/21 22/83/21 21/82/21 26/81/21