# Made in Blockbench 4.9.4
mtllib long_boi.mtl

o cube
v 0.09375 0.1875 0.0625
v 0.09375 0.1875 -1.125
v 0.09375 -0.0625 0.0625
v 0.09375 -0.0625 -1.125
v -0.09375 0.1875 -1.125
v -0.09375 0.1875 0.0625
v -0.09375 -0.0625 -1.125
v -0.09375 -0.0625 0.0625
vt 0.59375 1
vt 0 1
vt 0 0.875
vt 0.59375 0.875
vt 0 1
vt 0.59375 1
vt 0.59375 0.875
vt 0 0.875
vt 0 0.875
vt 0 0.78125
vt 0.59375 0.78125
vt 0.59375 0.875
vt 0 0.875
vt 0 0.78125
vt 0.59375 0.78125
vt 0.59375 0.875
vn 1 0 0
vn -1 0 0
vn 0 1 0
vn 0 -1 0
usemtl m_68755e8e-83a0-0f37-2740-a4f0db16b467
f 3/4/1 4/3/1 2/2/1 1/1/1
f 7/8/2 8/7/2 6/6/2 5/5/2
f 6/12/3 1/11/3 2/10/3 5/9/3
f 7/16/4 4/15/4 3/14/4 8/13/4
o cube
v 0.0625 -0.0625 0.0625
v 0.0625 -0.0625 -1.125
v 0.0625 -0.125 0.0625
v 0.0625 -0.125 -1.125
v -0.0625 -0.0625 -1.125
v -0.0625 -0.0625 0.0625
v -0.0625 -0.125 -1.125
v -0.0625 -0.125 0.0625
vt 0.65625 0.25
vt 0.71875 0.25
vt 0.71875 0.21875
vt 0.65625 0.21875
vt 0.59375 0.78125
vt 0 0.78125
vt 0 0.75
vt 0.59375 0.75
vt 0.75 0.34375
vt 0.8125 0.34375
vt 0.8125 0.3125
vt 0.75 0.3125
vt 0 0.78125
vt 0.59375 0.78125
vt 0.59375 0.75
vt 0 0.75
vt 0.59375 0.75
vt 0.59375 0.6875
vt 0 0.6875
vt 0 0.75
vn 0 0 -1
vn 1 0 0
vn 0 0 1
vn -1 0 0
vn 0 -1 0
usemtl m_68755e8e-83a0-0f37-2740-a4f0db16b467
f 12/20/5 15/19/5 13/18/5 10/17/5
f 11/24/6 12/23/6 10/22/6 9/21/6
f 16/28/7 11/27/7 9/26/7 14/25/7
f 15/32/8 16/31/8 14/30/8 13/29/8
f 15/36/9 12/35/9 11/34/9 16/33/9
o cube
v 0.09375 0.1875 -1.4375
v 0.09375 0.1875 -1.5
v 0.09375 -0.0625 -1.4375
v 0.09375 -0.0625 -1.5
v -0.09375 0.1875 -1.5
v -0.09375 0.1875 -1.4375
v -0.09375 -0.0625 -1.5
v -0.09375 -0.0625 -1.4375
vt 0.46875 0.6875
vt 0.5625 0.6875
vt 0.5625 0.5625
vt 0.46875 0.5625
vt 0.59375 0.6875
vt 0.5625 0.6875
vt 0.5625 0.5625
vt 0.59375 0.5625
vt 0.5625 0.6875
vt 0.59375 0.6875
vt 0.59375 0.5625
vt 0.5625 0.5625
vt 0.5625 0.53125
vt 0.46875 0.53125
vt 0.46875 0.5625
vt 0.5625 0.5625
vt 0.5625 0.5625
vt 0.46875 0.5625
vt 0.46875 0.53125
vt 0.5625 0.53125
vn 0 0 -1
vn 1 0 0
vn -1 0 0
vn 0 1 0
vn 0 -1 0
usemtl m_68755e8e-83a0-0f37-2740-a4f0db16b467
f 20/40/10 23/39/10 21/38/10 18/37/10
f 19/44/11 20/43/11 18/42/11 17/41/11
f 23/48/12 24/47/12 22/46/12 21/45/12
f 22/52/13 17/51/13 18/50/13 21/49/13
f 23/56/14 20/55/14 19/54/14 24/53/14
o cube
v 0.03125 -0.1875 -1.1875
v 0.03125 -0.1875 -1.375
v 0.03125 -0.25 -1.1875
v 0.03125 -0.25 -1.375
v -0.03125 -0.1875 -1.1875
v -0.03125 -0.1875 -1.375
v -0.03125 -0.25 -1.1875
v -0.03125 -0.25 -1.375
v 0.03125 -0.375 -1.1875
v -0.03125 -0.375 -1.1875
v 0.03125 -0.375 -1.3125
v -0.03125 -0.375 -1.3125
vt 0.3125 0.4375
vt 0.3125 0.46875
vt 0.21875 0.46875
vt 0.21875 0.4375
vt 0.21875 0.4375
vt 0.21875 0.46875
vt 0.3125 0.46875
vt 0.3125 0.4375
vt 0.625 0.59375
vt 0.625 0.65625
vt 0.59375 0.65625
vt 0.59375 0.59375
vt 0.65625 0.671875
vt 0.65625 0.703125
vt 0.625 0.703125
vt 0.625 0.671875
vt 0.625 0.65625
vt 0.625 0.6875
vt 0.59375 0.6875
vt 0.59375 0.65625
vt 0.21875 0.375
vt 0.28125 0.375
vt 0.3125 0.4375
vt 0.21875 0.4375
vt 0.625 0.703125
vt 0.65625 0.703125
vt 0.65625 0.765625
vt 0.625 0.765625
vt 0.28125 0.375
vt 0.21875 0.375
vt 0.21875 0.4375
vt 0.3125 0.4375
vt 0.59375 0.6875
vt 0.625 0.6875
vt 0.625 0.765625
vt 0.59375 0.765625
vn 1 0 0
vn -1 0 0
vn 0 -1 0
vn 0 0 1
vn 0 0 -1
vn 1 0 0
vn 0 0 1
vn -1 0 0
vn 0 -0.44721359549995804 -0.8944271909999161
usemtl m_68755e8e-83a0-0f37-2740-a4f0db16b467
f 28/57/15 26/58/15 25/59/15 27/60/15
f 31/61/16 29/62/16 30/63/16 32/64/16
f 35/65/17 33/66/17 34/67/17 36/68/17
f 27/69/18 25/70/18 29/71/18 31/72/18
f 32/73/19 30/74/19 26/75/19 28/76/19
f 33/77/20 35/78/20 28/79/20 27/80/20
f 34/81/21 33/82/21 27/83/21 31/84/21
f 36/85/22 34/86/22 31/87/22 32/88/22
f 35/89/23 36/90/23 32/91/23 28/92/23
o cube
v 0.125 0.25 -1.125
v 0.125 0.25 -1.4375
v 0.125 -0.125 -1.125
v 0.125 -0.125 -1.4375
v -0.125 0.25 -1.125
v -0.125 0.25 -1.4375
v -0.125 -0.125 -1.125
v -0.125 -0.125 -1.4375
v 0.0625 -0.1875 -1.125
v -0.0625 -0.1875 -1.125
v 0.0625 -0.1875 -1.4375
v -0.0625 -0.1875 -1.4375
vt 0.59375 0.8125
vt 0.59375 1
vt 0.75 1
vt 0.75 0.8125
vt 0.75 0.8125
vt 0.75 1
vt 0.59375 1
vt 0.59375 0.8125
vt 0.875 0.84375
vt 0.875 1
vt 0.75 1
vt 0.75 0.84375
vt 0.84375 1
vt 0.84375 0.84375
vt 0.78125 0.84375
vt 0.78125 1
vt 0.46875 0.5
vt 0.46875 0.6875
vt 0.34375 0.6875
vt 0.34375 0.5
vt 0.46875 0.5
vt 0.46875 0.6875
vt 0.34375 0.6875
vt 0.34375 0.5
vt 0.75 0.765625
vt 0.59375 0.765625
vt 0.59375 0.8125
vt 0.75 0.8125
vt 0.375 0.46875
vt 0.4375 0.46875
vt 0.46875 0.5
vt 0.34375 0.5
vt 0.59375 0.765625
vt 0.75 0.765625
vt 0.75 0.8125
vt 0.59375 0.8125
vt 0.375 0.46875
vt 0.4375 0.46875
vt 0.46875 0.5
vt 0.34375 0.5
vn 1 0 0
vn -1 0 0
vn 0 1 0
vn 0 -1 0
vn 0 0 1
vn 0 0 -1
vn 0.7071067811865476 -0.7071067811865476 0
vn 0 0 1
vn -0.7071067811865476 -0.7071067811865476 0
vn 0 0 -1
usemtl m_68755e8e-83a0-0f37-2740-a4f0db16b467
f 40/93/24 38/94/24 37/95/24 39/96/24
f 43/97/25 41/98/25 42/99/25 44/100/25
f 37/101/26 38/102/26 42/103/26 41/104/26
f 47/105/27 45/106/27 46/107/27 48/108/27
f 39/109/28 37/110/28 41/111/28 43/112/28
f 44/113/29 42/114/29 38/115/29 40/116/29
f 45/117/30 47/118/30 40/119/30 39/120/30
f 46/121/31 45/122/31 39/123/31 43/124/31
f 48/125/32 46/126/32 43/127/32 44/128/32
f 47/129/33 48/130/33 44/131/33 40/132/33
o cube
v 0.125 0.25 0.5
v 0.125 0.25 0.0625
v 0.125 -0.1875 0.5
v 0.125 -0.1875 0.0625
v -0.125 0.25 0.0625
v -0.125 0.25 0.5
v -0.125 -0.1875 0.0625
v -0.125 -0.1875 0.5
vt 0 0.34375
vt 0 0.46875
vt 0.21875 0.46875
vt 0.21875 0.34375
vt 0.21875 0.6875
vt 0 0.6875
vt 0 0.46875
vt 0.21875 0.46875
vt 0 0.34375
vt 0 0.46875
vt 0.21875 0.46875
vt 0.21875 0.34375
vt 0 0.6875
vt 0.21875 0.6875
vt 0.21875 0.46875
vt 0 0.46875
vt 0.34375 0.6875
vt 0.21875 0.6875
vt 0.21875 0.46875
vt 0.34375 0.46875
vt 0.34375 0.46875
vt 0.21875 0.46875
vt 0.21875 0.6875
vt 0.34375 0.6875
vn 0 0 -1
vn 1 0 0
vn 0 0 1
vn -1 0 0
vn 0 1 0
vn 0 -1 0
usemtl m_68755e8e-83a0-0f37-2740-a4f0db16b467
f 52/136/34 55/135/34 53/134/34 50/133/34
f 51/140/35 52/139/35 50/138/35 49/137/35
f 56/144/36 51/143/36 49/142/36 54/141/36
f 55/148/37 56/147/37 54/146/37 53/145/37
f 54/152/38 49/151/38 50/150/38 53/149/38
f 55/156/39 52/155/39 51/154/39 56/153/39
o cube
v 0.09375 -0.0625 -0.8125
v 0.09375 -0.0625 -0.9375
v 0.09375 -0.125 -0.8125
v 0.09375 -0.125 -0.9375
v -0.09375 -0.0625 -0.8125
v -0.09375 -0.0625 -0.9375
v -0.09375 -0.125 -0.8125
v -0.09375 -0.125 -0.9375
v 0.03125 -0.1875 -0.8125
v -0.03125 -0.1875 -0.8125
v 0.03125 -0.1875 -0.9375
v -0.03125 -0.1875 -0.9375
vt 0.9375 0.96875
vt 0.9375 1
vt 1 1
vt 1 0.96875
vt 1 0.96875
vt 1 1
vt 0.9375 1
vt 0.9375 0.96875
vt 0.9375 0.890625
vt 1 0.890625
vt 1 0.921875
vt 0.9375 0.921875
vt 0.9375 1
vt 0.90625 1
vt 0.90625 0.90625
vt 0.9375 0.90625
vt 0.9375 1
vt 0.90625 1
vt 0.90625 0.90625
vt 0.9375 0.90625
vt 1 0.921875
vt 0.9375 0.921875
vt 0.9375 0.96875
vt 1 0.96875
vt 0.875 0.96875
vt 0.875 0.9375
vt 0.90625 0.90625
vt 0.90625 1
vt 0.9375 0.921875
vt 1 0.921875
vt 1 0.96875
vt 0.9375 0.96875
vt 0.875 0.96875
vt 0.875 0.9375
vt 0.90625 0.90625
vt 0.90625 1
vn 1 0 0
vn -1 0 0
vn 0 -1 0
vn 0 0 1
vn 0 0 -1
vn 0.7071067811865476 -0.7071067811865476 0
vn 0 0 1
vn -0.7071067811865476 -0.7071067811865476 0
vn 0 0 -1
usemtl m_68755e8e-83a0-0f37-2740-a4f0db16b467
f 60/157/40 58/158/40 57/159/40 59/160/40
f 63/161/41 61/162/41 62/163/41 64/164/41
f 67/165/42 65/166/42 66/167/42 68/168/42
f 59/169/43 57/170/43 61/171/43 63/172/43
f 64/173/44 62/174/44 58/175/44 60/176/44
f 65/177/45 67/178/45 60/179/45 59/180/45
f 66/181/46 65/182/46 59/183/46 63/184/46
f 68/185/47 66/186/47 63/187/47 64/188/47
f 67/189/48 68/190/48 64/191/48 60/192/48
o cube
v 0.03125 0.3125 -1.1875
v 0.03125 0.3125 -1.375
v 0.03125 0.25 -1.1875
v 0.03125 0.25 -1.375
v -0.03125 0.3125 -1.375
v -0.03125 0.3125 -1.1875
v -0.03125 0.25 -1.375
v -0.03125 0.25 -1.1875
vt 0.875 0.84375
vt 0.90625 0.84375
vt 0.90625 0.8125
vt 0.875 0.8125
vt 0.90625 0.875
vt 1 0.875
vt 1 0.84375
vt 0.90625 0.84375
vt 0.875 0.84375
vt 0.90625 0.84375
vt 0.90625 0.8125
vt 0.875 0.8125
vt 1 0.875
vt 0.90625 0.875
vt 0.90625 0.84375
vt 1 0.84375
vt 1 0.84375
vt 1 0.8125
vt 0.90625 0.8125
vt 0.90625 0.84375
vn 0 0 -1
vn 1 0 0
vn 0 0 1
vn -1 0 0
vn 0 1 0
usemtl m_68755e8e-83a0-0f37-2740-a4f0db16b467
f 72/196/49 75/195/49 73/194/49 70/193/49
f 71/200/50 72/199/50 70/198/50 69/197/50
f 76/204/51 71/203/51 69/202/51 74/201/51
f 75/208/52 76/207/52 74/206/52 73/205/52
f 74/212/53 69/211/53 70/210/53 73/209/53
o cube
v 0.09375 -0.0625 -0.5625
v 0.09375 -0.0625 -0.6875
v 0.09375 -0.125 -0.5625
v 0.09375 -0.125 -0.6875
v -0.09375 -0.0625 -0.5625
v -0.09375 -0.0625 -0.6875
v -0.09375 -0.125 -0.5625
v -0.09375 -0.125 -0.6875
v 0.03125 -0.1875 -0.5625
v -0.03125 -0.1875 -0.5625
v 0.03125 -0.1875 -0.6875
v -0.03125 -0.1875 -0.6875
vt 0.9375 0.96875
vt 0.9375 1
vt 1 1
vt 1 0.96875
vt 1 0.96875
vt 1 1
vt 0.9375 1
vt 0.9375 0.96875
vt 0.9375 0.890625
vt 1 0.890625
vt 1 0.921875
vt 0.9375 0.921875
vt 0.9375 1
vt 0.90625 1
vt 0.90625 0.90625
vt 0.9375 0.90625
vt 0.9375 1
vt 0.90625 1
vt 0.90625 0.90625
vt 0.9375 0.90625
vt 1 0.921875
vt 0.9375 0.921875
vt 0.9375 0.96875
vt 1 0.96875
vt 0.875 0.96875
vt 0.875 0.9375
vt 0.90625 0.90625
vt 0.90625 1
vt 0.9375 0.921875
vt 1 0.921875
vt 1 0.96875
vt 0.9375 0.96875
vt 0.875 0.96875
vt 0.875 0.9375
vt 0.90625 0.90625
vt 0.90625 1
vn 1 0 0
vn -1 0 0
vn 0 -1 0
vn 0 0 1
vn 0 0 -1
vn 0.7071067811865476 -0.7071067811865476 0
vn 0 0 1
vn -0.7071067811865476 -0.7071067811865476 0
vn 0 0 -1
usemtl m_68755e8e-83a0-0f37-2740-a4f0db16b467
f 80/213/54 78/214/54 77/215/54 79/216/54
f 83/217/55 81/218/55 82/219/55 84/220/55
f 87/221/56 85/222/56 86/223/56 88/224/56
f 79/225/57 77/226/57 81/227/57 83/228/57
f 84/229/58 82/230/58 78/231/58 80/232/58
f 85/233/59 87/234/59 80/235/59 79/236/59
f 86/237/60 85/238/60 79/239/60 83/240/60
f 88/241/61 86/242/61 83/243/61 84/244/61
f 87/245/62 88/246/62 84/247/62 80/248/62
o cube
v 0.09375 -0.0625 -0.3125
v 0.09375 -0.0625 -0.4375
v 0.09375 -0.125 -0.3125
v 0.09375 -0.125 -0.4375
v -0.09375 -0.0625 -0.3125
v -0.09375 -0.0625 -0.4375
v -0.09375 -0.125 -0.3125
v -0.09375 -0.125 -0.4375
v 0.03125 -0.1875 -0.3125
v -0.03125 -0.1875 -0.3125
v 0.03125 -0.1875 -0.4375
v -0.03125 -0.1875 -0.4375
vt 0.9375 0.96875
vt 0.9375 1
vt 1 1
vt 1 0.96875
vt 1 0.96875
vt 1 1
vt 0.9375 1
vt 0.9375 0.96875
vt 0.9375 0.890625
vt 1 0.890625
vt 1 0.921875
vt 0.9375 0.921875
vt 0.9375 1
vt 0.90625 1
vt 0.90625 0.90625
vt 0.9375 0.90625
vt 0.9375 1
vt 0.90625 1
vt 0.90625 0.90625
vt 0.9375 0.90625
vt 1 0.921875
vt 0.9375 0.921875
vt 0.9375 0.96875
vt 1 0.96875
vt 0.875 0.96875
vt 0.875 0.9375
vt 0.90625 0.90625
vt 0.90625 1
vt 0.9375 0.921875
vt 1 0.921875
vt 1 0.96875
vt 0.9375 0.96875
vt 0.875 0.96875
vt 0.875 0.9375
vt 0.90625 0.90625
vt 0.90625 1
vn 1 0 0
vn -1 0 0
vn 0 -1 0
vn 0 0 1
vn 0 0 -1
vn 0.7071067811865476 -0.7071067811865476 0
vn 0 0 1
vn -0.7071067811865476 -0.7071067811865476 0
vn 0 0 -1
usemtl m_68755e8e-83a0-0f37-2740-a4f0db16b467
f 92/249/63 90/250/63 89/251/63 91/252/63
f 95/253/64 93/254/64 94/255/64 96/256/64
f 99/257/65 97/258/65 98/259/65 100/260/65
f 91/261/66 89/262/66 93/263/66 95/264/66
f 96/265/67 94/266/67 90/267/67 92/268/67
f 97/269/68 99/270/68 92/271/68 91/272/68
f 98/273/69 97/274/69 91/275/69 95/276/69
f 100/277/70 98/278/70 95/279/70 96/280/70
f 99/281/71 100/282/71 96/283/71 92/284/71
o cube
v 0.09375 -0.0625 -0.0625
v 0.09375 -0.0625 -0.1875
v 0.09375 -0.125 -0.0625
v 0.09375 -0.125 -0.1875
v -0.09375 -0.0625 -0.0625
v -0.09375 -0.0625 -0.1875
v -0.09375 -0.125 -0.0625
v -0.09375 -0.125 -0.1875
v 0.03125 -0.1875 -0.0625
v -0.03125 -0.1875 -0.0625
v 0.03125 -0.1875 -0.1875
v -0.03125 -0.1875 -0.1875
vt 0.9375 0.96875
vt 0.9375 1
vt 1 1
vt 1 0.96875
vt 1 0.96875
vt 1 1
vt 0.9375 1
vt 0.9375 0.96875
vt 0.9375 0.890625
vt 1 0.890625
vt 1 0.921875
vt 0.9375 0.921875
vt 0.9375 1
vt 0.90625 1
vt 0.90625 0.90625
vt 0.9375 0.90625
vt 0.9375 1
vt 0.90625 1
vt 0.90625 0.90625
vt 0.9375 0.90625
vt 1 0.921875
vt 0.9375 0.921875
vt 0.9375 0.96875
vt 1 0.96875
vt 0.875 0.96875
vt 0.875 0.9375
vt 0.90625 0.90625
vt 0.90625 1
vt 0.9375 0.921875
vt 1 0.921875
vt 1 0.96875
vt 0.9375 0.96875
vt 0.875 0.96875
vt 0.875 0.9375
vt 0.90625 0.90625
vt 0.90625 1
vn 1 0 0
vn -1 0 0
vn 0 -1 0
vn 0 0 1
vn 0 0 -1
vn 0.7071067811865476 -0.7071067811865476 0
vn 0 0 1
vn -0.7071067811865476 -0.7071067811865476 0
vn 0 0 -1
usemtl m_68755e8e-83a0-0f37-2740-a4f0db16b467
f 104/285/72 102/286/72 101/287/72 103/288/72
f 107/289/73 105/290/73 106/291/73 108/292/73
f 111/293/74 109/294/74 110/295/74 112/296/74
f 103/297/75 101/298/75 105/299/75 107/300/75
f 108/301/76 106/302/76 102/303/76 104/304/76
f 109/305/77 111/306/77 104/307/77 103/308/77
f 110/309/78 109/310/78 103/311/78 107/312/78
f 112/313/79 110/314/79 107/315/79 108/316/79
f 111/317/80 112/318/80 108/319/80 104/320/80
o cube
v 0.0625 -0.1875 0.5
v 0.0625 -0.1875 0.125
v 0.0625 -0.25 0.5
v 0.0625 -0.25 0.125
v -0.0625 -0.1875 0.125
v -0.0625 -0.1875 0.5
v -0.0625 -0.25 0.125
v -0.0625 -0.25 0.5
vt 0 0.25
vt 0.0625 0.25
vt 0.0625 0.21875
vt 0 0.21875
vt 0.1875 0.28125
vt 0 0.28125
vt 0 0.25
vt 0.1875 0.25
vt 0 0.25
vt 0.0625 0.25
vt 0.0625 0.21875
vt 0 0.21875
vt 0 0.28125
vt 0.1875 0.28125
vt 0.1875 0.25
vt 0 0.25
vt 0 0.34375
vt 0 0.28125
vt 0.1875 0.28125
vt 0.1875 0.34375
vn 0 0 -1
vn 1 0 0
vn 0 0 1
vn -1 0 0
vn 0 -1 0
usemtl m_68755e8e-83a0-0f37-2740-a4f0db16b467
f 116/324/81 119/323/81 117/322/81 114/321/81
f 115/328/82 116/327/82 114/326/82 113/325/82
f 120/332/83 115/331/83 113/330/83 118/329/83
f 119/336/84 120/335/84 118/334/84 117/333/84
f 119/340/85 116/339/85 115/338/85 120/337/85