# Made in Blockbench 4.9.4
mtllib triple_carousel.mtl

o cube
v 0.125 0.25 0.5
v 0.125 0.25 0.375
v -0.12500000000000003 0.25000000000000006 0.5
v -0.12500000000000003 0.25000000000000006 0.375
v 0.12500000000000003 0.4375000000000001 0.375
v -0.12500000000000006 0.4375000000000001 0.375
v 0.12500000000000003 0.4375000000000001 0.5
v -0.12500000000000006 0.4375000000000001 0.5
v 0.15400635094610973 -0.2332531754730548 0.5
v 0.15400635094610973 -0.2332531754730548 0.375
v 0.2790063509461097 -0.016746824526945064 0.5
v 0.2790063509461097 -0.016746824526945064 0.375
v 0.31638611415569207 -0.3270031754730548 0.375
v 0.44138611415569196 -0.11049682452694506 0.375
v 0.31638611415569207 -0.3270031754730548 0.5
v 0.44138611415569196 -0.11049682452694506 0.5
v -0.27900635094610965 -0.016746824526945328 0.5
v -0.27900635094610965 -0.016746824526945328 0.375
v -0.15400635094610957 -0.23325317547305496 0.5
v -0.15400635094610957 -0.23325317547305496 0.375
v -0.44138611415569196 -0.11049682452694541 0.375
v -0.3163861141556918 -0.32700317547305513 0.375
v -0.44138611415569196 -0.11049682452694541 0.5
v -0.3163861141556918 -0.32700317547305513 0.5
v -3.605555036969183e-17 -2.0816681711721676e-17 0.375
v -3.605555036969183e-17 -2.0816681711721676e-17 0.5
vt 0.3125 0.25
vt 0.1875 0.25
vt 0.1875 0
vt 0.3125 0
vt 0.5 0
vt 0.5 0.125
vt 0.3125 0.125
vt 0.3125 0
vt 5.551115123125783e-17 0.25000532525578334
vt 0 0
vt 0.18750128759323542 0.0000015624667178970597
vt 0.18750128759323548 0.2500068877225011
vt 0.5 0
vt 0.5 0.125
vt 0.3125 0.125
vt 0.3125 0
vt 5.551115123125783e-17 0.25000532525578334
vt 0 0
vt 0.18750128759323542 0.0000015624667178970597
vt 0.18750128759323548 0.2500068877225011
vt 0.3125 0.25
vt 0.1875 0.25
vt 0.1875 0
vt 0.3125 0
vt 0.5 0
vt 0.5 0.125
vt 0.3125 0.125
vt 0.3125 0
vt 5.551115123125783e-17 0.25000532525578334
vt 0 0
vt 0.18750128759323542 0.0000015624667178970597
vt 0.18750128759323548 0.2500068877225011
vt 0.5 0
vt 0.5 0.125
vt 0.3125 0.125
vt 0.3125 0
vt 5.551115123125783e-17 0.25000532525578334
vt 0 0
vt 0.18750128759323542 0.0000015624667178970597
vt 0.18750128759323548 0.2500068877225011
vt 0.3125 0.25
vt 0.1875 0.25
vt 0.1875 0
vt 0.3125 0
vt 0.5 0
vt 0.5 0.125
vt 0.3125 0.125
vt 0.3125 0
vt 5.551115123125783e-17 0.25000532525578334
vt 0 0
vt 0.18750128759323542 0.0000015624667178970597
vt 0.18750128759323548 0.2500068877225011
vt 0.5 0
vt 0.5 0.125
vt 0.3125 0.125
vt 0.3125 0
vt 5.551115123125783e-17 0.25000532525578334
vt 0 0
vt 0.18750128759323542 0.0000015624667178970597
vt 0.18750128759323548 0.2500068877225011
vt 0.81025625 0.125
vt 0.50224375 0.125
vt 0.50224375 0
vt 0.81025625 0
vt 0.81025625 0.125
vt 0.50224375 0.125
vt 0.50224375 0
vt 0.81025625 0
vt 0.81025625 0.125
vt 0.50224375 0.125
vt 0.50224375 0
vt 0.81025625 0
vt 0 1
vt 0.12499953769445588 0.7500000874414207
vt 0.25000532525578334 1
vt 0 0.9999999999999998
vt 0.12500578756132752 0.7500000874414205
vt 0.25000532525578323 1
vt 0.125 0.75
vt 0.25 1
vt 0 1
vt 0.5595075084703531 1
vt 0.2514975196662155 1
vt 0.4055027726587208 0.7667460996023552
vt 0.4059888241284071 0.7667460996023552
vt 0.5599940771209126 0.9999999999999998
vt 0.251984088316775 1
vt 0.40556875000000003 0.76674375
vt 0.5595750000000002 1
vt 0.2515624999999999 1
vt 0.12499953769445593 0.7500000874414207
vt 0 1
vt 0.25000532525578334 1
vt 0.12500624973374613 0.75
vt 0 0.9999999999999996
vt 0.25 1
vt 0 1
vt 0.125 0.75
vt 0.25 1
vt 0.25449001119586234 1
vt 0.5625 1
vt 0.4084952641883677 0.7667460996023552
vt 0.5599940771209126 0.9999999999999998
vt 0.4059888241284071 0.7667460996023552
vt 0.251984088316775 1
vt 0.2499999999999999 1
vt 0.4040062499999999 0.7667437500000001
vt 0.5580124999999999 1
vn 1.1102230246251565e-16 1 0
vn 1 -5.551115123125783e-17 0
vn 0 0 -1
vn -1 -2.2204460492503126e-16 0
vn 0 0 1
vn 0.8660254037844388 -0.49999999999999956 0
vn -0.4999999999999998 -0.8660254037844388 0
vn 0 0 -1
vn 0.49999999999999994 0.8660254037844388 0
vn 0 0 1
vn -0.8660254037844385 -0.5000000000000003 0
vn -0.5000000000000003 0.8660254037844385 0
vn 0 0 -1
vn 0.5000000000000007 -0.8660254037844383 0
vn 0 0 1
vn 0.8660254037844386 0.5000000000000002 0
vn 5.551115123125783e-16 -1 0
vn -0.8660254037844388 0.49999999999999956 0
vn 0 0 -1
vn 0 0 -1
vn 0 0 -1
vn 0 0 -1
vn 0 0 -1
vn 0 0 -1
vn 0 0 1
vn 0 0 1
vn 0 0 1
vn 0 0 1
vn 0 0 1
vn 0 0 1
usemtl m_a6d1e771-770c-e9dd-aa7d-643f26356f9b
f 7/1/1 5/2/1 6/3/1 8/4/1
f 5/5/2 7/6/2 1/7/2 2/8/2
f 6/9/3 5/10/3 2/11/3 4/12/3
f 8/13/4 6/14/4 4/15/4 3/16/4
f 7/17/5 8/18/5 3/19/5 1/20/5
f 15/21/6 13/22/6 14/23/6 16/24/6
f 13/25/7 15/26/7 9/27/7 10/28/7
f 14/29/8 13/30/8 10/31/8 12/32/8
f 16/33/9 14/34/9 12/35/9 11/36/9
f 15/37/10 16/38/10 11/39/10 9/40/10
f 23/41/11 21/42/11 22/43/11 24/44/11
f 21/45/12 23/46/12 17/47/12 18/48/12
f 22/49/13 21/50/13 18/51/13 20/52/13
f 24/53/14 22/54/14 20/55/14 19/56/14
f 23/57/15 24/58/15 19/59/15 17/60/15
f 12/61/16 2/62/16 1/63/16 11/64/16
f 20/65/17 10/66/17 9/67/17 19/68/17
f 4/69/18 18/70/18 17/71/18 3/72/18
f 10/73/19 25/74/19 12/75/19
f 2/76/20 25/77/20 4/78/20
f 25/79/21 20/80/21 18/81/21
f 10/82/22 20/83/22 25/84/22
f 25/85/23 18/86/23 4/87/23
f 25/88/24 2/89/24 12/90/24
f 26/91/25 9/92/25 11/93/25
f 26/94/26 1/95/26 3/96/26
f 19/97/27 26/98/27 17/99/27
f 19/100/28 9/101/28 26/102/28
f 17/103/29 26/104/29 3/105/29
f 1/106/30 26/107/30 11/108/30