# Made in Blockbench 4.10.1
mtllib tree_vacuum_item.mtl

o cube
v 0.5 0.5 -1.3125
v 0.5 0.5 -1.5
v 0.5 -0.5 -1.3125
v 0.5 -0.5 -1.5
v -0.5 0.5 -1.5
v -0.5 0.5 -1.3125
v -0.5 -0.5 -1.5
v -0.5 -0.5 -1.3125
vt 0.53125 1
vt 0.78125 1
vt 0.78125 0.75
vt 0.53125 0.75
vt 0.78125 1
vt 0.828125 1
vt 0.828125 0.75
vt 0.78125 0.75
vt 0.53125 1
vt 0.78125 1
vt 0.78125 0.75
vt 0.53125 0.75
vt 0.78125 1
vt 0.828125 1
vt 0.828125 0.75
vt 0.78125 0.75
vt 0.78125 0.75
vt 0.78125 1
vt 0.828125 1
vt 0.828125 0.75
vt 0.78125 0.75
vt 0.78125 1
vt 0.828125 1
vt 0.828125 0.75
vn 0 0 -1
vn 1 0 0
vn 0 0 1
vn -1 0 0
vn 0 1 0
vn 0 -1 0
usemtl m_5b1c7248-decd-55bd-fe68-65b7481887fc
f 4/4/1 7/3/1 5/2/1 2/1/1
f 3/8/2 4/7/2 2/6/2 1/5/2
f 8/12/3 3/11/3 1/10/3 6/9/3
f 7/16/4 8/15/4 6/14/4 5/13/4
f 6/20/5 1/19/5 2/18/5 5/17/5
f 7/24/6 4/23/6 3/22/6 8/21/6
o cube
v 0.375 0.375 -0.625
v 0.375 0.375 -1.3125
v 0.375 -0.375 -0.625
v 0.375 -0.375 -1.3125
v -0.375 0.375 -1.3125
v -0.375 0.375 -0.625
v -0.375 -0.375 -1.3125
v -0.375 -0.375 -0.625
vt 1 0.53125
vt 0.828125 0.53125
vt 0.828125 0.34375
vt 1 0.34375
vt 0.828125 0.53125
vt 1 0.53125
vt 1 0.34375
vt 0.828125 0.34375
vt 0.828125 0.34375
vt 0.828125 0.53125
vt 1 0.53125
vt 1 0.34375
vt 1 0.34375
vt 1 0.53125
vt 0.828125 0.53125
vt 0.828125 0.34375
vn 1 0 0
vn -1 0 0
vn 0 1 0
vn 0 -1 0
usemtl m_5b1c7248-decd-55bd-fe68-65b7481887fc
f 11/28/7 12/27/7 10/26/7 9/25/7
f 15/32/8 16/31/8 14/30/8 13/29/8
f 14/36/9 9/35/9 10/34/9 13/33/9
f 15/40/10 12/39/10 11/38/10 16/37/10
o cube
v 0.625 0.5 -0.5
v 0.625 0.5 -0.625
v 0.625 -0.5 -0.5
v 0.625 -0.5 -0.625
v -0.625 0.5 -0.625
v -0.625 0.5 -0.5
v -0.625 -0.5 -0.625
v -0.625 -0.5 -0.5
vt 0.203125 1
vt 0.515625 1
vt 0.515625 0.75
vt 0.203125 0.75
vt 0.171875 1
vt 0.203125 1
vt 0.203125 0.75
vt 0.171875 0.75
vt 0.171875 1
vt 0.203125 1
vt 0.203125 0.75
vt 0.171875 0.75
vt 0.203125 0.75
vt 0.515625 0.75
vt 0.515625 0.71875
vt 0.203125 0.71875
vt 0.203125 0.75
vt 0.515625 0.75
vt 0.515625 0.71875
vt 0.203125 0.71875
vn 0 0 -1
vn 1 0 0
vn -1 0 0
vn 0 1 0
vn 0 -1 0
usemtl m_5b1c7248-decd-55bd-fe68-65b7481887fc
f 20/44/11 23/43/11 21/42/11 18/41/11
f 19/48/12 20/47/12 18/46/12 17/45/12
f 23/52/13 24/51/13 22/50/13 21/49/13
f 22/56/14 17/55/14 18/54/14 21/53/14
f 23/60/15 20/59/15 19/58/15 24/57/15
o cube
v -0.5 -0.375 0
v -0.5 -0.375 -0.5
v -0.5 -0.5 0
v -0.5 -0.5 -0.5
v -1 -0.375 -0.5
v -1 -0.375 0
v -1 -0.5 -0.5
v -1 -0.5 0
vt 0 0.6875
vt 0.125 0.6875
vt 0.125 0.71875
vt 0 0.71875
vt 0 0.6875
vt 0.125 0.6875
vt 0.125 0.71875
vt 0 0.71875
vt 0.25 0.6875
vt 0.375 0.6875
vt 0.375 0.5625
vt 0.25 0.5625
vn 0 0 -1
vn -1 0 0
vn 0 -1 0
usemtl m_5b1c7248-decd-55bd-fe68-65b7481887fc
f 28/64/16 31/63/16 29/62/16 26/61/16
f 31/68/17 32/67/17 30/66/17 29/65/17
f 31/72/18 28/71/18 27/70/18 32/69/18
o cube
v 1 0.5 0
v 1 0.5 -0.5
v 1 0.375 0
v 1 0.375 -0.5
v 0.5 0.5 -0.5
v 0.5 0.5 0
v 0.5 0.375 -0.5
v 0.5 0.375 0
vt 0 0.71875
vt 0.125 0.71875
vt 0.125 0.6875
vt 0 0.6875
vt 0 0.71875
vt 0.125 0.71875
vt 0.125 0.6875
vt 0 0.6875
vt 0.25 0.6875
vt 0.375 0.6875
vt 0.375 0.5625
vt 0.25 0.5625
vn 0 0 -1
vn 1 0 0
vn 0 1 0
usemtl m_5b1c7248-decd-55bd-fe68-65b7481887fc
f 36/76/19 39/75/19 37/74/19 34/73/19
f 35/80/20 36/79/20 34/78/20 33/77/20
f 38/84/21 33/83/21 34/82/21 37/81/21
o cube
v 0.5 1 0.5
v 0.5 1 -0.5
v 0.5 0.5 0.5
v 0.5 0.5 -0.5
v -0.5 1 -0.5
v -0.5 1 0.5
v -0.5 0.5 -0.5
v -0.5 0.5 0.5
vt 0.5 0
vt 0.5 0.25
vt 0.375 0.25
vt 0.375 0
vt 0.578125 0.375
vt 0.828125 0.375
vt 0.828125 0.25
vt 0.578125 0.25
vt 0.828125 0.375
vt 0.578125 0.375
vt 0.578125 0.25
vt 0.828125 0.25
vt 0.828125 0.375
vt 0.578125 0.375
vt 0.578125 0.25
vt 0.828125 0.25
vt 0.5 0.25
vt 0.5 0
vt 0.75 0
vt 0.75 0.25
vn 0 0 -1
vn 1 0 0
vn 0 0 1
vn -1 0 0
vn 0 1 0
usemtl m_5b1c7248-decd-55bd-fe68-65b7481887fc
f 44/88/22 47/87/22 45/86/22 42/85/22
f 43/92/23 44/91/23 42/90/23 41/89/23
f 48/96/24 43/95/24 41/94/24 46/93/24
f 47/100/25 48/99/25 46/98/25 45/97/25
f 46/104/26 41/103/26 42/102/26 45/101/26
o cube
v 0.5 0.5 0.5
v 0.5 0.5 -0.5
v 0.5 -0.5 0.5
v 0.5 -0.5 -0.5
v -0.5 0.5 -0.5
v -0.5 0.5 0.5
v -0.5 -0.5 -0.5
v -0.5 -0.5 0.5
vt 0.75 0.25
vt 1 0.25
vt 1 0
vt 0.75 0
vt 0.75 0.25
vt 1 0.25
vt 1 0
vt 0.75 0
vn 0 0 1
vn 0 -1 0
usemtl m_5b1c7248-decd-55bd-fe68-65b7481887fc
f 56/108/27 51/107/27 49/106/27 54/105/27
f 55/112/28 52/111/28 51/110/28 56/109/28
o cube
v -0.5 0.5 0.5
v -0.5 0.5 0
v -0.5 -0.5 0.5
v -0.5 -0.5 0
v -1 0.5 0
v -1 0.5 0.5
v -1 -0.5 0
v -1 -0.5 0.5
vt 0 0.5625
vt 0 0.6875
vt 0.25 0.6875
vt 0.25 0.5625
vt 0 0.5625
vt 0 0.6875
vt 0.25 0.6875
vt 0.25 0.5625
vt 0.5 0.6875
vt 0.375 0.6875
vt 0.375 0.5625
vt 0.5 0.5625
vt 0.5 0.6875
vt 0.375 0.6875
vt 0.375 0.5625
vt 0.5 0.5625
vn 0 0 1
vn -1 0 0
vn 0 1 0
vn 0 -1 0
usemtl m_5b1c7248-decd-55bd-fe68-65b7481887fc
f 64/116/29 59/115/29 57/114/29 62/113/29
f 63/120/30 64/119/30 62/118/30 61/117/30
f 62/124/31 57/123/31 58/122/31 61/121/31
f 63/128/32 60/127/32 59/126/32 64/125/32
o cube
v 1 0.5 0.5
v 1 0.5 0
v 1 -0.5 0.5
v 1 -0.5 0
v 0.5 0.5 0
v 0.5 0.5 0.5
v 0.5 -0.5 0
v 0.5 -0.5 0.5
vt 0.25 0.6875
vt 0.25 0.5625
vt 0 0.5625
vt 0 0.6875
vt 0.25 0.5625
vt 0.25 0.6875
vt 0 0.6875
vt 0 0.5625
vt 0.375 0.6875
vt 0.5 0.6875
vt 0.5 0.5625
vt 0.375 0.5625
vt 0.5 0.6875
vt 0.375 0.6875
vt 0.375 0.5625
vt 0.5 0.5625
vn 1 0 0
vn 0 0 1
vn 0 1 0
vn 0 -1 0
usemtl m_5b1c7248-decd-55bd-fe68-65b7481887fc
f 67/132/33 68/131/33 66/130/33 65/129/33
f 72/136/34 67/135/34 65/134/34 70/133/34
f 70/140/35 65/139/35 66/138/35 69/137/35
f 71/144/36 68/143/36 67/142/36 72/141/36
o cube
v -0.4375 -0.375 -1.375
v -0.4375 -0.375 -1.625
v -0.4375 -0.375 -1.375
v -0.4375 -0.375 -1.625
v -0.625 -0.375 -1.625
v -0.625 -0.375 -1.375
v -0.625 -0.375 -1.625
v -0.625 -0.375 -1.375
vt 0 1
vt 0.046875 1
vt 0.046875 0.9375
vt 0 0.9375
vt 0 0.9375
vt 0.046875 0.9375
vt 0.046875 1
vt 0 1
vn 0 1 0
vn 0 -1 0
usemtl m_5b1c7248-decd-55bd-fe68-65b7481887fc
f 78/148/37 73/147/37 74/146/37 77/145/37
f 79/152/38 76/151/38 75/150/38 80/149/38
o cube
v -0.4375 0.3125 -1.4375
v -0.4375 0.3125 -1.6875
v -0.4375 0.3125 -1.4375
v -0.4375 0.3125 -1.6875
v -0.625 0.3125 -1.6875
v -0.625 0.3125 -1.4375
v -0.625 0.3125 -1.6875
v -0.625 0.3125 -1.4375
vt 0 1
vt 0.046875 1
vt 0.046875 0.9375
vt 0 0.9375
vt 0 0.9375
vt 0.046875 0.9375
vt 0.046875 1
vt 0 1
vn 0 1 0
vn 0 -1 0
usemtl m_5b1c7248-decd-55bd-fe68-65b7481887fc
f 86/156/39 81/155/39 82/154/39 85/153/39
f 87/160/40 84/159/40 83/158/40 88/157/40
o cube
v 0.625 -0.375 -1.375
v 0.625 -0.375 -1.625
v 0.625 -0.375 -1.375
v 0.625 -0.375 -1.625
v 0.4375 -0.375 -1.625
v 0.4375 -0.375 -1.375
v 0.4375 -0.375 -1.625
v 0.4375 -0.375 -1.375
vt 0.046875 1
vt 0 1
vt 0 0.9375
vt 0.046875 0.9375
vt 0.046875 0.9375
vt 0 0.9375
vt 0 1
vt 0.046875 1
vn 0 1 0
vn 0 -1 0
usemtl m_5b1c7248-decd-55bd-fe68-65b7481887fc
f 94/164/41 89/163/41 90/162/41 93/161/41
f 95/168/42 92/167/42 91/166/42 96/165/42
o cube
v 0.625 0.3125 -1.4375
v 0.625 0.3125 -1.6875
v 0.625 0.3125 -1.4375
v 0.625 0.3125 -1.6875
v 0.4375 0.3125 -1.6875
v 0.4375 0.3125 -1.4375
v 0.4375 0.3125 -1.6875
v 0.4375 0.3125 -1.4375
vt 0.046875 1
vt 0 1
vt 0 0.9375
vt 0.046875 0.9375
vt 0.046875 0.9375
vt 0 0.9375
vt 0 1
vt 0.046875 1
vn 0 1 0
vn 0 -1 0
usemtl m_5b1c7248-decd-55bd-fe68-65b7481887fc
f 102/172/43 97/171/43 98/170/43 101/169/43
f 103/176/44 100/175/44 99/174/44 104/173/44
o cube
v -0.5 0.5 0
v -0.5 0.5 -0.5
v -0.5 0.375 0
v -0.5 0.375 -0.5
v -1 0.5 -0.5
v -1 0.5 0
v -1 0.375 -0.5
v -1 0.375 0
vt 0 0.71875
vt 0.125 0.71875
vt 0.125 0.6875
vt 0 0.6875
vt 0 0.71875
vt 0.125 0.71875
vt 0.125 0.6875
vt 0 0.6875
vt 0.25 0.6875
vt 0.375 0.6875
vt 0.375 0.5625
vt 0.25 0.5625
vn 0 0 -1
vn -1 0 0
vn 0 1 0
usemtl m_5b1c7248-decd-55bd-fe68-65b7481887fc
f 108/180/45 111/179/45 109/178/45 106/177/45
f 111/184/46 112/183/46 110/182/46 109/181/46
f 110/188/47 105/187/47 106/186/47 109/185/47
o cube
v 1 -0.375 0
v 1 -0.375 -0.5
v 1 -0.5 0
v 1 -0.5 -0.5
v 0.5 -0.375 -0.5
v 0.5 -0.375 0
v 0.5 -0.5 -0.5
v 0.5 -0.5 0
vt 0 0.6875
vt 0.125 0.6875
vt 0.125 0.65625
vt 0 0.65625
vt 0 0.6875
vt 0.125 0.6875
vt 0.125 0.65625
vt 0 0.65625
vt 0.25 0.6875
vt 0.375 0.6875
vt 0.375 0.5625
vt 0.25 0.5625
vn 0 0 -1
vn 1 0 0
vn 0 -1 0
usemtl m_5b1c7248-decd-55bd-fe68-65b7481887fc
f 116/192/48 119/191/48 117/190/48 114/189/48
f 115/196/49 116/195/49 114/194/49 113/193/49
f 119/200/50 116/199/50 115/198/50 120/197/50
o cube
v -0.25 0.5625 -0.4375
v -0.25 0.5625 -1.3125
v -0.25 0.4375 -0.4375
v -0.25 0.4375 -1.3125
v -0.375 0.5625 -1.3125
v -0.375 0.5625 -0.4375
v -0.375 0.4375 -1.3125
v -0.375 0.4375 -0.4375
vt 0.203125 0.71875
vt 0.234375 0.71875
vt 0.234375 0.6875
vt 0.203125 0.6875
vt 0.234375 0.71875
vt 0.453125 0.71875
vt 0.453125 0.6875
vt 0.234375 0.6875
vt 0.234375 0.71875
vt 0.453125 0.71875
vt 0.453125 0.6875
vt 0.234375 0.6875
vt 0.234375 0.6875
vt 0.234375 0.71875
vt 0.453125 0.71875
vt 0.453125 0.6875
vn 0 0 -1
vn 1 0 0
vn -1 0 0
vn 0 1 0
usemtl m_5b1c7248-decd-55bd-fe68-65b7481887fc
f 124/204/51 127/203/51 125/202/51 122/201/51
f 123/208/52 124/207/52 122/206/52 121/205/52
f 127/212/53 128/211/53 126/210/53 125/209/53
f 126/216/54 121/215/54 122/214/54 125/213/54
o cube
v 0.375 0.5625 -0.4375
v 0.375 0.5625 -1.3125
v 0.375 0.4375 -0.4375
v 0.375 0.4375 -1.3125
v 0.25 0.5625 -1.3125
v 0.25 0.5625 -0.4375
v 0.25 0.4375 -1.3125
v 0.25 0.4375 -0.4375
vt 0.203125 0.71875
vt 0.234375 0.71875
vt 0.234375 0.6875
vt 0.203125 0.6875
vt 0.234375 0.71875
vt 0.453125 0.71875
vt 0.453125 0.6875
vt 0.234375 0.6875
vt 0.234375 0.71875
vt 0.453125 0.71875
vt 0.453125 0.6875
vt 0.234375 0.6875
vt 0.234375 0.6875
vt 0.234375 0.71875
vt 0.453125 0.71875
vt 0.453125 0.6875
vn 0 0 -1
vn 1 0 0
vn -1 0 0
vn 0 1 0
usemtl m_5b1c7248-decd-55bd-fe68-65b7481887fc
f 132/220/55 135/219/55 133/218/55 130/217/55
f 131/224/56 132/223/56 130/222/56 129/221/56
f 135/228/57 136/227/57 134/226/57 133/225/57
f 134/232/58 129/231/58 130/230/58 133/229/58
o cube
v 0.625 0.375 -0.5
v 0.625 0.375 0
v 0.625 -0.375 -0.5
v 0.625 -0.375 0
v 1 0.375 0
v 1 0.375 -0.5
v 1 -0.375 0
v 1 -0.375 -0.5
vt 0.078125 1
vt 0.171875 1
vt 0.171875 0.8125
vt 0.078125 0.8125
vt 0.171875 1
vt 0.078125 1
vt 0.078125 0.8125
vt 0.171875 0.8125
vt 0.046875 1
vt 0.171875 1
vt 0.171875 0.8125
vt 0.046875 0.8125
vt 0 0.71875
vt 0 0.8125
vt 0.125 0.8125
vt 0.125 0.71875
vt 0 0.71875
vt 0 0.8125
vt 0.125 0.8125
vt 0.125 0.71875
vn 1.2246467991473532e-16 0 1
vn -1.2246467991473532e-16 0 -1
vn 1 0 -1.2246467991473532e-16
vn 0 1 0
vn 0 -1 0
usemtl m_5b1c7248-decd-55bd-fe68-65b7481887fc
f 140/236/59 143/235/59 141/234/59 138/233/59
f 144/240/60 139/239/60 137/238/60 142/237/60
f 143/244/61 144/243/61 142/242/61 141/241/61
f 142/248/62 137/247/62 138/246/62 141/245/62
f 143/252/63 140/251/63 139/250/63 144/249/63
o cube
v 0.4375 0.4375 -0.625
v 0.4375 0.4375 -1.3125
v 0.4375 -0.4375 -0.625
v 0.4375 -0.4375 -1.3125
v -0.4375 0.4375 -1.3125
v -0.4375 0.4375 -0.625
v -0.4375 -0.4375 -1.3125
v -0.4375 -0.4375 -0.625
vt 0.609375 0.75
vt 0.828125 0.75
vt 0.828125 0.53125
vt 0.609375 0.53125
vt 0.828125 0.75
vt 1 0.75
vt 1 0.53125
vt 0.828125 0.53125
vt 0.828125 0.75
vt 1 0.75
vt 1 0.53125
vt 0.828125 0.53125
vt 0.828125 0.53125
vt 0.828125 0.75
vt 1 0.75
vt 1 0.53125
vt 0.828125 0.53125
vt 0.828125 0.75
vt 1 0.75
vt 1 0.53125
vn 0 0 -1
vn 1 0 0
vn -1 0 0
vn 0 1 0
vn 0 -1 0
usemtl m_5b1c7248-decd-55bd-fe68-65b7481887fc
f 148/256/64 151/255/64 149/254/64 146/253/64
f 147/260/65 148/259/65 146/258/65 145/257/65
f 151/264/66 152/263/66 150/262/66 149/261/66
f 150/268/67 145/267/67 146/266/67 149/265/67
f 151/272/68 148/271/68 147/270/68 152/269/68
o cube
v -0.625 0.375 0
v -0.625 0.375 -0.5
v -0.625 -0.375 0
v -0.625 -0.375 -0.5
v -1 0.375 -0.5
v -1 0.375 0
v -1 -0.375 -0.5
v -1 -0.375 0
vt 0.078125 1
vt 0.171875 1
vt 0.171875 0.8125
vt 0.078125 0.8125
vt 0.171875 1
vt 0.078125 1
vt 0.078125 0.8125
vt 0.171875 0.8125
vt 0.046875 1
vt 0.171875 1
vt 0.171875 0.8125
vt 0.046875 0.8125
vt 0 0.71875
vt 0 0.8125
vt 0.125 0.8125
vt 0.125 0.71875
vt 0 0.71875
vt 0 0.8125
vt 0.125 0.8125
vt 0.125 0.71875
vn 0 0 -1
vn 0 0 1
vn -1 0 0
vn 0 1 0
vn 0 -1 0
usemtl m_5b1c7248-decd-55bd-fe68-65b7481887fc
f 156/276/69 159/275/69 157/274/69 154/273/69
f 160/280/70 155/279/70 153/278/70 158/277/70
f 159/284/71 160/283/71 158/282/71 157/281/71
f 158/288/72 153/287/72 154/286/72 157/285/72
f 159/292/73 156/291/73 155/290/73 160/289/73