# Made in Blockbench 4.10.1
mtllib rock_drill.mtl

o cube
v 0.0625 0.0625 -0.875
v 0.0625 0.0625 -1.375
v 0.0625 -0.0625 -0.875
v 0.0625 -0.0625 -1.375
v -0.0625 0.0625 -1.375
v -0.0625 0.0625 -0.875
v -0.0625 -0.0625 -1.375
v -0.0625 -0.0625 -0.875
vt 0 0.0625
vt 0.25 0.0625
vt 0.25 0
vt 0 0
vt 0 0.0625
vt 0.25 0.0625
vt 0.25 0
vt 0 0
vt 0 0
vt 0 0.0625
vt 0.25 0.0625
vt 0.25 0
vt 0 0
vt 0 0.0625
vt 0.25 0.0625
vt 0.25 0
vn 1 0 0
vn -1 0 0
vn 0 1 0
vn 0 -1 0
usemtl m_5010f33b-9cd6-2c04-bc25-7dc2a1b1069b
f 3/4/1 4/3/1 2/2/1 1/1/1
f 7/8/2 8/7/2 6/6/2 5/5/2
f 6/12/3 1/11/3 2/10/3 5/9/3
f 7/16/4 4/15/4 3/14/4 8/13/4
o cube
v 0.0625 0.0625 -1.375
v 0.09375 0.015625 -1.5
v 0.0625 -0.0625 -1.375
v -0.0625 0.0625 -1.375
v -0.09375 0.015625 -1.5
v -0.0625 -0.0625 -1.375
v 0.09375 -0.015625 -1.5
v -0.09375 -0.015625 -1.5
vt 0.9062500000000009 0.0234375
vt 0.9062500000000009 0.0390625
vt 0.9706750000000008 0.0625
vt 0.9706750000000008 0
vt 0.9706718750000001 0
vt 0.9706718750000001 0.0625
vt 0.90625 0.0390625
vt 0.90625 0.0234375
vt 0.796875 0.06674999999999998
vt 0.78125 0
vt 0.875 0
vt 0.859375 0.06674999999999998
vt 0.78125 0
vt 0.796875 0.06674999999999986
vt 0.859375 0.06674999999999986
vt 0.875 0
vt 0.9375 0.09375
vt 0.9375 0.125
vt 0.8125 0.125
vt 0.8125 0.09375
vn 0.9701425001453319 0 0.24253562503633297
vn -0.9701425001453319 0 0.24253562503633297
vn 0 0.9363291775690445 -0.3511234415883917
vn 0 -0.9363291775690445 -0.3511234415883917
vn 0 0 -1
usemtl m_5010f33b-9cd6-2c04-bc25-7dc2a1b1069b
f 15/17/5 10/18/5 9/19/5 11/20/5
f 14/21/6 12/22/6 13/23/6 16/24/6
f 9/25/7 10/26/7 13/27/7 12/28/7
f 15/29/8 11/30/8 14/31/8 16/32/8
f 16/33/9 13/34/9 10/35/9 15/36/9
o cube
v -0.1875 0.0625 -0.4375
v -0.1875 0.0625 -0.5625
v -0.1875 0 -0.4375
v -0.1875 0 -0.5625
v -0.375 0.0625 -0.5625
v -0.375 0.0625 -0.4375
v -0.375 0 -0.5625
v -0.375 0 -0.4375
vt 0 0.21875
vt 0.09375 0.21875
vt 0.09375 0.1875
vt 0 0.1875
vt 0.15625 0.21875
vt 0.25 0.21875
vt 0.25 0.1875
vt 0.15625 0.1875
vt 0.09375 0.21875
vt 0.15625 0.21875
vt 0.15625 0.1875
vt 0.09375 0.1875
vt 0 0.28125
vt 0.09375 0.28125
vt 0.09375 0.21875
vt 0 0.21875
vt 0 0.28125
vt 0.09375 0.28125
vt 0.09375 0.21875
vt 0 0.21875
vn 0 0 -1
vn 0 0 1
vn -1 0 0
vn 0 1 0
vn 0 -1 0
usemtl m_5010f33b-9cd6-2c04-bc25-7dc2a1b1069b
f 20/40/10 23/39/10 21/38/10 18/37/10
f 24/44/11 19/43/11 17/42/11 22/41/11
f 23/48/12 24/47/12 22/46/12 21/45/12
f 22/52/13 17/51/13 18/50/13 21/49/13
f 23/56/14 20/55/14 19/54/14 24/53/14
o cube
v 0.125 0.125 -0.8125
v 0.125 0.125 -0.875
v 0.125 -0.125 -0.8125
v 0.125 -0.125 -0.875
v -0.125 0.125 -0.875
v -0.125 0.125 -0.8125
v -0.125 -0.125 -0.875
v -0.125 -0.125 -0.8125
vt 0 0.1875
vt 0.125 0.1875
vt 0.125 0.0625
vt 0 0.0625
vt 0.125 0.1875
vt 0.15625 0.1875
vt 0.15625 0.0625
vt 0.125 0.0625
vt 0.125 0.1875
vt 0.15625 0.1875
vt 0.15625 0.0625
vt 0.125 0.0625
vt 0.125 0.0625
vt 0.125 0.1875
vt 0.15625 0.1875
vt 0.15625 0.0625
vt 0.125 0.0625
vt 0.125 0.1875
vt 0.15625 0.1875
vt 0.15625 0.0625
vn 0 0 -1
vn 1 0 0
vn -1 0 0
vn 0 1 0
vn 0 -1 0
usemtl m_5010f33b-9cd6-2c04-bc25-7dc2a1b1069b
f 28/60/15 31/59/15 29/58/15 26/57/15
f 27/64/16 28/63/16 26/62/16 25/61/16
f 31/68/17 32/67/17 30/66/17 29/65/17
f 30/72/18 25/71/18 26/70/18 29/69/18
f 31/76/19 28/75/19 27/74/19 32/73/19
o cube
v -0.3125 0.0625 0.3125
v -0.3125 0.0625 0.1875
v -0.3125 -0.0625 0.3125
v -0.3125 -0.0625 0.1875
v -0.625 0.0625 0.1875
v -0.625 0.0625 0.3125
v -0.625 -0.0625 0.1875
v -0.625 -0.0625 0.3125
vt 0.3125 0.1875
vt 0.15625 0.1875
vt 0.15625 0.125
vt 0.3125 0.125
vt 0.15625 0.1875
vt 0.3125 0.1875
vt 0.3125 0.125
vt 0.15625 0.125
vt 0.625 0.1875
vt 0.6875 0.1875
vt 0.6875 0.125
vt 0.625 0.125
vt 0.15625 0.1875
vt 0.3125 0.1875
vt 0.3125 0.125
vt 0.15625 0.125
vt 0.15625 0.1875
vt 0.3125 0.1875
vt 0.3125 0.125
vt 0.15625 0.125
vn 0 0 -1
vn 0 0 1
vn -1 0 0
vn 0 1 0
vn 0 -1 0
usemtl m_5010f33b-9cd6-2c04-bc25-7dc2a1b1069b
f 36/80/20 39/79/20 37/78/20 34/77/20
f 40/84/21 35/83/21 33/82/21 38/81/21
f 39/88/22 40/87/22 38/86/22 37/85/22
f 38/92/23 33/91/23 34/90/23 37/89/23
f 39/96/24 36/95/24 35/94/24 40/93/24
o cube
v 0.625 0.0625 0.3125
v 0.625 0.0625 0.1875
v 0.625 -0.0625 0.3125
v 0.625 -0.0625 0.1875
v 0.3125 0.0625 0.1875
v 0.3125 0.0625 0.3125
v 0.3125 -0.0625 0.1875
v 0.3125 -0.0625 0.3125
vt 0.15625 0.1875
vt 0.3125 0.1875
vt 0.3125 0.125
vt 0.15625 0.125
vt 0.625 0.1875
vt 0.6875 0.1875
vt 0.6875 0.125
vt 0.625 0.125
vt 0.3125 0.1875
vt 0.15625 0.1875
vt 0.15625 0.125
vt 0.3125 0.125
vt 0.3125 0.1875
vt 0.15625 0.1875
vt 0.15625 0.125
vt 0.3125 0.125
vt 0.3125 0.1875
vt 0.15625 0.1875
vt 0.15625 0.125
vt 0.3125 0.125
vn 0 0 -1
vn 1 0 0
vn 0 0 1
vn 0 1 0
vn 0 -1 0
usemtl m_5010f33b-9cd6-2c04-bc25-7dc2a1b1069b
f 44/100/25 47/99/25 45/98/25 42/97/25
f 43/104/26 44/103/26 42/102/26 41/101/26
f 48/108/27 43/107/27 41/106/27 46/105/27
f 46/112/28 41/111/28 42/110/28 45/109/28
f 47/116/29 44/115/29 43/114/29 48/113/29
o cube
v 0.1875 0.1875 0.5
v 0.1875 0.1875 -0.5625
v 0.1875 -0.1875 0.5
v 0.1875 -0.1875 -0.5625
v -0.1875 0.1875 -0.5625
v -0.1875 0.1875 0.5
v -0.1875 -0.1875 -0.5625
v -0.1875 -0.1875 0.5
vt 0.375 1
vt 0.5625 1
vt 0.5625 0.8125
vt 0.375 0.8125
vt 0.1875 0.46875
vt 0.1875 1
vt 0.375 1
vt 0.375 0.46875
vt 0.375 1
vt 0.5625 1
vt 0.5625 0.8125
vt 0.375 0.8125
vt 0.1875 1
vt 0.1875 0.46875
vt 0.375 0.46875
vt 0.375 1
vt 0 1
vt 0.1875 1
vt 0.1875 0.46875
vt 0 0.46875
vt 0 1
vt 0.1875 1
vt 0.1875 0.46875
vt 0 0.46875
vn 0 0 -1
vn 1 0 0
vn 0 0 1
vn -1 0 0
vn 0 1 0
vn 0 -1 0
usemtl m_5010f33b-9cd6-2c04-bc25-7dc2a1b1069b
f 52/120/30 55/119/30 53/118/30 50/117/30
f 51/124/31 52/123/31 50/122/31 49/121/31
f 56/128/32 51/127/32 49/126/32 54/125/32
f 55/132/33 56/131/33 54/130/33 53/129/33
f 54/136/34 49/135/34 50/134/34 53/133/34
f 55/140/35 52/139/35 51/138/35 56/137/35
o cube
v 0.3125 0.0625 0.4375
v 0.3125 0.0625 0.1875
v 0.3125 -0.0625 0.4375
v 0.3125 -0.0625 0.1875
v 0.1875 0.0625 0.1875
v 0.1875 0.0625 0.4375
v 0.1875 -0.0625 0.1875
v 0.1875 -0.0625 0.4375
vt 0.6875 0.1875
vt 0.75 0.1875
vt 0.75 0.125
vt 0.6875 0.125
vt 0.625 0.1875
vt 0.5 0.1875
vt 0.5 0.125
vt 0.625 0.125
vt 0.5 0.1875
vt 0.4375 0.1875
vt 0.4375 0.125
vt 0.5 0.125
vt 0.4375 0.1875
vt 0.4375 0.125
vt 0.3125 0.125
vt 0.3125 0.1875
vt 0.3125 0.1875
vt 0.3125 0.125
vt 0.4375 0.125
vt 0.4375 0.1875
vn 0 0 -1
vn 1 0 0
vn 0 0 1
vn 0 1 0
vn 0 -1 0
usemtl m_5010f33b-9cd6-2c04-bc25-7dc2a1b1069b
f 60/144/36 63/143/36 61/142/36 58/141/36
f 59/148/37 60/147/37 58/146/37 57/145/37
f 64/152/38 59/151/38 57/150/38 62/149/38
f 62/156/39 57/155/39 58/154/39 61/153/39
f 63/160/40 60/159/40 59/158/40 64/157/40
o cube
v -0.1875 0.125 0.125
v -0.1875 0.125 -0.625
v -0.1875 0.0625 0.125
v -0.1875 0.0625 -0.625
v -0.25 0.125 -0.625
v -0.25 0.125 0.125
v -0.25 0.0625 -0.625
v -0.25 0.0625 0.125
vt 0.4375 0.8125
vt 0.46875 0.8125
vt 0.46875 0.78125
vt 0.4375 0.78125
vt 0.4375 0.8125
vt 0.46875 0.8125
vt 0.46875 0.78125
vt 0.4375 0.78125
vt 0.40625 0.4375
vt 0.40625 0.8125
vt 0.4375 0.8125
vt 0.4375 0.4375
vt 0.375 0.8125
vt 0.40625 0.8125
vt 0.40625 0.4375
vt 0.375 0.4375
vt 0.375 0.8125
vt 0.40625 0.8125
vt 0.40625 0.4375
vt 0.375 0.4375
vn 0 0 -1
vn 0 0 1
vn -1 0 0
vn 0 1 0
vn 0 -1 0
usemtl m_5010f33b-9cd6-2c04-bc25-7dc2a1b1069b
f 68/164/41 71/163/41 69/162/41 66/161/41
f 72/168/42 67/167/42 65/166/42 70/165/42
f 71/172/43 72/171/43 70/170/43 69/169/43
f 70/176/44 65/175/44 66/174/44 69/173/44
f 71/180/45 68/179/45 67/178/45 72/177/45
o cube
v 0.1875 0.125 -0.5625
v 0.1875 0.125 -0.75
v 0.1875 -0.125 -0.5625
v 0.1875 -0.125 -0.75
v -0.1875 0.125 -0.75
v -0.1875 0.125 -0.5625
v -0.1875 -0.125 -0.75
v -0.1875 -0.125 -0.5625
vt 0.5 0.125
vt 0.6875 0.125
vt 0.6875 0
vt 0.5 0
vt 0.6875 0.125
vt 0.78125 0.125
vt 0.78125 0
vt 0.6875 0
vt 0.6875 0.125
vt 0.78125 0.125
vt 0.78125 0
vt 0.6875 0
vt 0.71875 1
vt 0.90625 1
vt 0.90625 0.90625
vt 0.71875 0.90625
vt 0 0.90625
vt 0.1875 0.90625
vt 0.1875 1
vt 0 1
vn 0 0 -1
vn 1 0 0
vn -1 0 0
vn 0 1 0
vn 0 -1 0
usemtl m_5010f33b-9cd6-2c04-bc25-7dc2a1b1069b
f 76/184/46 79/183/46 77/182/46 74/181/46
f 75/188/47 76/187/47 74/186/47 73/185/47
f 79/192/48 80/191/48 78/190/48 77/189/48
f 78/196/49 73/195/49 74/194/49 77/193/49
f 79/200/50 76/199/50 75/198/50 80/197/50
o cube
v -0.25 0.125 -0.75
v -0.25 0.125 -0.8125
v 0.25 0.125 -0.75
v 0.25 0.125 -0.8125
v -0.25 -0.12499999999999994 -0.8125
v -0.25 -0.12499999999999994 -0.75
v 0.25 -0.12500000000000006 -0.8125
v 0.25 -0.12500000000000006 -0.75
vt 0.25 0
vt 0.25 0.125
vt 0.5 0.125
vt 0.5 0
vt 0.4375 0.71875
vt 0.46875 0.71875
vt 0.46875 0.46875
vt 0.4375 0.46875
vt 0.25 0
vt 0.25 0.125
vt 0.5 0.125
vt 0.5 0
vt 0.4375 0.71875
vt 0.46875 0.71875
vt 0.46875 0.46875
vt 0.4375 0.46875
vt 0 1
vt 0.125 1
vt 0.125 0.96875
vt 0 0.96875
vt 0 1
vt 0.125 1
vt 0.125 0.96875
vt 0 0.96875
vn 0 0 -1
vn 2.220446049250313e-16 1 0
vn 0 0 1
vn -2.220446049250313e-16 -1 0
vn -1 2.220446049250313e-16 0
vn 1 -2.220446049250313e-16 0
usemtl m_5010f33b-9cd6-2c04-bc25-7dc2a1b1069b
f 84/204/51 87/203/51 85/202/51 82/201/51
f 83/208/52 84/207/52 82/206/52 81/205/52
f 88/212/53 83/211/53 81/210/53 86/209/53
f 87/216/54 88/215/54 86/214/54 85/213/54
f 86/220/55 81/219/55 82/218/55 85/217/55
f 87/224/56 84/223/56 83/222/56 88/221/56
o cube
v -0.1875 0 0.125
v -0.1875 0 -0.625
v -0.1875 -0.125 0.125
v -0.1875 -0.125 -0.625
v -0.25 0 -0.625
v -0.25 0 0.125
v -0.25 -0.125 -0.625
v -0.25 -0.125 0.125
vt 0.4375 0.78125
vt 0.46875 0.78125
vt 0.46875 0.71875
vt 0.4375 0.71875
vt 0.4375 0.78125
vt 0.46875 0.78125
vt 0.46875 0.71875
vt 0.4375 0.71875
vt 0 0.46875
vt 0.375 0.46875
vt 0.375 0.40625
vt 0 0.40625
vt 0.46875 0.8125
vt 0.5 0.8125
vt 0.5 0.4375
vt 0.46875 0.4375
vt 0.375 0.8125
vt 0.40625 0.8125
vt 0.40625 0.4375
vt 0.375 0.4375
vn 0 0 -1
vn 0 0 1
vn -1 0 0
vn 0 1 0
vn 0 -1 0
usemtl m_5010f33b-9cd6-2c04-bc25-7dc2a1b1069b
f 92/228/57 95/227/57 93/226/57 90/225/57
f 96/232/58 91/231/58 89/230/58 94/229/58
f 95/236/59 96/235/59 94/234/59 93/233/59
f 94/240/60 89/239/60 90/238/60 93/237/60
f 95/244/61 92/243/61 91/242/61 96/241/61
o cube
v -0.1875 0.0625 0.4375
v -0.1875 0.0625 0.1875
v -0.1875 -0.0625 0.4375
v -0.1875 -0.0625 0.1875
v -0.3125 0.0625 0.1875
v -0.3125 0.0625 0.4375
v -0.3125 -0.0625 0.1875
v -0.3125 -0.0625 0.4375
vt 0.75 0.1875
vt 0.6875 0.1875
vt 0.6875 0.125
vt 0.75 0.125
vt 0.4375 0.1875
vt 0.5 0.1875
vt 0.5 0.125
vt 0.4375 0.125
vt 0.5 0.1875
vt 0.625 0.1875
vt 0.625 0.125
vt 0.5 0.125
vt 0.3125 0.125
vt 0.3125 0.1875
vt 0.4375 0.1875
vt 0.4375 0.125
vt 0.3125 0.125
vt 0.3125 0.1875
vt 0.4375 0.1875
vt 0.4375 0.125
vn 0 0 -1
vn 0 0 1
vn -1 0 0
vn 0 1 0
vn 0 -1 0
usemtl m_5010f33b-9cd6-2c04-bc25-7dc2a1b1069b
f 100/248/62 103/247/62 101/246/62 98/245/62
f 104/252/63 99/251/63 97/250/63 102/249/63
f 103/256/64 104/255/64 102/254/64 101/253/64
f 102/260/65 97/259/65 98/258/65 101/257/65
f 103/264/66 100/263/66 99/262/66 104/261/66