# Made in Blockbench 4.10.1
mtllib rock_drill_off.mtl

o cube
v 0.125 0.125 -0.8125
v 0.125 0.125 -0.875
v 0.125 -0.125 -0.8125
v 0.125 -0.125 -0.875
v -0.125 0.125 -0.875
v -0.125 0.125 -0.8125
v -0.125 -0.125 -0.875
v -0.125 -0.125 -0.8125
vt 0 0.1875
vt 0.125 0.1875
vt 0.125 0.0625
vt 0 0.0625
vt 0.125 0.1875
vt 0.15625 0.1875
vt 0.15625 0.0625
vt 0.125 0.0625
vt 0.125 0.1875
vt 0.15625 0.1875
vt 0.15625 0.0625
vt 0.125 0.0625
vt 0.125 0.0625
vt 0.125 0.1875
vt 0.15625 0.1875
vt 0.15625 0.0625
vt 0.125 0.0625
vt 0.125 0.1875
vt 0.15625 0.1875
vt 0.15625 0.0625
vn 0 0 -1
vn 1 0 0
vn -1 0 0
vn 0 1 0
vn 0 -1 0
usemtl m_5010f33b-9cd6-2c04-bc25-7dc2a1b1069b
f 4/4/1 7/3/1 5/2/1 2/1/1
f 3/8/2 4/7/2 2/6/2 1/5/2
f 7/12/3 8/11/3 6/10/3 5/9/3
f 6/16/4 1/15/4 2/14/4 5/13/4
f 7/20/5 4/19/5 3/18/5 8/17/5
o cube
v -0.3125 0.0625 0.3125
v -0.3125 0.0625 0.1875
v -0.3125 -0.0625 0.3125
v -0.3125 -0.0625 0.1875
v -0.625 0.0625 0.1875
v -0.625 0.0625 0.3125
v -0.625 -0.0625 0.1875
v -0.625 -0.0625 0.3125
vt 0.3125 0.1875
vt 0.15625 0.1875
vt 0.15625 0.125
vt 0.3125 0.125
vt 0.15625 0.1875
vt 0.3125 0.1875
vt 0.3125 0.125
vt 0.15625 0.125
vt 0.625 0.1875
vt 0.6875 0.1875
vt 0.6875 0.125
vt 0.625 0.125
vt 0.15625 0.1875
vt 0.3125 0.1875
vt 0.3125 0.125
vt 0.15625 0.125
vt 0.15625 0.1875
vt 0.3125 0.1875
vt 0.3125 0.125
vt 0.15625 0.125
vn 0 0 -1
vn 0 0 1
vn -1 0 0
vn 0 1 0
vn 0 -1 0
usemtl m_5010f33b-9cd6-2c04-bc25-7dc2a1b1069b
f 12/24/6 15/23/6 13/22/6 10/21/6
f 16/28/7 11/27/7 9/26/7 14/25/7
f 15/32/8 16/31/8 14/30/8 13/29/8
f 14/36/9 9/35/9 10/34/9 13/33/9
f 15/40/10 12/39/10 11/38/10 16/37/10
o cube
v 0.625 0.0625 0.3125
v 0.625 0.0625 0.1875
v 0.625 -0.0625 0.3125
v 0.625 -0.0625 0.1875
v 0.3125 0.0625 0.1875
v 0.3125 0.0625 0.3125
v 0.3125 -0.0625 0.1875
v 0.3125 -0.0625 0.3125
vt 0.15625 0.1875
vt 0.3125 0.1875
vt 0.3125 0.125
vt 0.15625 0.125
vt 0.625 0.1875
vt 0.6875 0.1875
vt 0.6875 0.125
vt 0.625 0.125
vt 0.3125 0.1875
vt 0.15625 0.1875
vt 0.15625 0.125
vt 0.3125 0.125
vt 0.3125 0.1875
vt 0.15625 0.1875
vt 0.15625 0.125
vt 0.3125 0.125
vt 0.3125 0.1875
vt 0.15625 0.1875
vt 0.15625 0.125
vt 0.3125 0.125
vn 0 0 -1
vn 1 0 0
vn 0 0 1
vn 0 1 0
vn 0 -1 0
usemtl m_5010f33b-9cd6-2c04-bc25-7dc2a1b1069b
f 20/44/11 23/43/11 21/42/11 18/41/11
f 19/48/12 20/47/12 18/46/12 17/45/12
f 24/52/13 19/51/13 17/50/13 22/49/13
f 22/56/14 17/55/14 18/54/14 21/53/14
f 23/60/15 20/59/15 19/58/15 24/57/15
o cube
v 0.1875 0.1875 0.5
v 0.1875 0.1875 -0.5625
v 0.1875 -0.1875 0.5
v 0.1875 -0.1875 -0.5625
v -0.1875 0.1875 -0.5625
v -0.1875 0.1875 0.5
v -0.1875 -0.1875 -0.5625
v -0.1875 -0.1875 0.5
vt 0.375 1
vt 0.5625 1
vt 0.5625 0.8125
vt 0.375 0.8125
vt 0.1875 0.46875
vt 0.1875 1
vt 0.375 1
vt 0.375 0.46875
vt 0.375 1
vt 0.5625 1
vt 0.5625 0.8125
vt 0.375 0.8125
vt 0.1875 1
vt 0.1875 0.46875
vt 0.375 0.46875
vt 0.375 1
vt 0 1
vt 0.1875 1
vt 0.1875 0.46875
vt 0 0.46875
vt 0 1
vt 0.1875 1
vt 0.1875 0.46875
vt 0 0.46875
vn 0 0 -1
vn 1 0 0
vn 0 0 1
vn -1 0 0
vn 0 1 0
vn 0 -1 0
usemtl m_5010f33b-9cd6-2c04-bc25-7dc2a1b1069b
f 28/64/16 31/63/16 29/62/16 26/61/16
f 27/68/17 28/67/17 26/66/17 25/65/17
f 32/72/18 27/71/18 25/70/18 30/69/18
f 31/76/19 32/75/19 30/74/19 29/73/19
f 30/80/20 25/79/20 26/78/20 29/77/20
f 31/84/21 28/83/21 27/82/21 32/81/21
o cube
v -0.1875 0.0625 0.4375
v -0.1875 0.0625 0.1875
v -0.1875 -0.0625 0.4375
v -0.1875 -0.0625 0.1875
v -0.3125 0.0625 0.1875
v -0.3125 0.0625 0.4375
v -0.3125 -0.0625 0.1875
v -0.3125 -0.0625 0.4375
vt 0.75 0.1875
vt 0.6875 0.1875
vt 0.6875 0.125
vt 0.75 0.125
vt 0.4375 0.1875
vt 0.5 0.1875
vt 0.5 0.125
vt 0.4375 0.125
vt 0.5 0.1875
vt 0.625 0.1875
vt 0.625 0.125
vt 0.5 0.125
vt 0.3125 0.125
vt 0.3125 0.1875
vt 0.4375 0.1875
vt 0.4375 0.125
vt 0.3125 0.125
vt 0.3125 0.1875
vt 0.4375 0.1875
vt 0.4375 0.125
vn 0 0 -1
vn 0 0 1
vn -1 0 0
vn 0 1 0
vn 0 -1 0
usemtl m_5010f33b-9cd6-2c04-bc25-7dc2a1b1069b
f 36/88/22 39/87/22 37/86/22 34/85/22
f 40/92/23 35/91/23 33/90/23 38/89/23
f 39/96/24 40/95/24 38/94/24 37/93/24
f 38/100/25 33/99/25 34/98/25 37/97/25
f 39/104/26 36/103/26 35/102/26 40/101/26
o cube
v 0.3125 0.0625 0.4375
v 0.3125 0.0625 0.1875
v 0.3125 -0.0625 0.4375
v 0.3125 -0.0625 0.1875
v 0.1875 0.0625 0.1875
v 0.1875 0.0625 0.4375
v 0.1875 -0.0625 0.1875
v 0.1875 -0.0625 0.4375
vt 0.6875 0.1875
vt 0.75 0.1875
vt 0.75 0.125
vt 0.6875 0.125
vt 0.625 0.1875
vt 0.5 0.1875
vt 0.5 0.125
vt 0.625 0.125
vt 0.5 0.1875
vt 0.4375 0.1875
vt 0.4375 0.125
vt 0.5 0.125
vt 0.4375 0.1875
vt 0.4375 0.125
vt 0.3125 0.125
vt 0.3125 0.1875
vt 0.3125 0.1875
vt 0.3125 0.125
vt 0.4375 0.125
vt 0.4375 0.1875
vn 0 0 -1
vn 1 0 0
vn 0 0 1
vn 0 1 0
vn 0 -1 0
usemtl m_5010f33b-9cd6-2c04-bc25-7dc2a1b1069b
f 44/108/27 47/107/27 45/106/27 42/105/27
f 43/112/28 44/111/28 42/110/28 41/109/28
f 48/116/29 43/115/29 41/114/29 46/113/29
f 46/120/30 41/119/30 42/118/30 45/117/30
f 47/124/31 44/123/31 43/122/31 48/121/31
o cube
v -0.1875 0.125 0.125
v -0.1875 0.125 -0.625
v -0.1875 0.0625 0.125
v -0.1875 0.0625 -0.625
v -0.25 0.125 -0.625
v -0.25 0.125 0.125
v -0.25 0.0625 -0.625
v -0.25 0.0625 0.125
vt 0.4375 0.8125
vt 0.46875 0.8125
vt 0.46875 0.78125
vt 0.4375 0.78125
vt 0.4375 0.8125
vt 0.46875 0.8125
vt 0.46875 0.78125
vt 0.4375 0.78125
vt 0.40625 0.4375
vt 0.40625 0.8125
vt 0.4375 0.8125
vt 0.4375 0.4375
vt 0.375 0.8125
vt 0.40625 0.8125
vt 0.40625 0.4375
vt 0.375 0.4375
vt 0.375 0.8125
vt 0.40625 0.8125
vt 0.40625 0.4375
vt 0.375 0.4375
vn 0 0 -1
vn 0 0 1
vn -1 0 0
vn 0 1 0
vn 0 -1 0
usemtl m_5010f33b-9cd6-2c04-bc25-7dc2a1b1069b
f 52/128/32 55/127/32 53/126/32 50/125/32
f 56/132/33 51/131/33 49/130/33 54/129/33
f 55/136/34 56/135/34 54/134/34 53/133/34
f 54/140/35 49/139/35 50/138/35 53/137/35
f 55/144/36 52/143/36 51/142/36 56/141/36
o cube
v -0.25 0.125 -0.75
v -0.25 0.125 -0.8125
v 0.25 0.125 -0.75
v 0.25 0.125 -0.8125
v -0.25 -0.12499999999999994 -0.8125
v -0.25 -0.12499999999999994 -0.75
v 0.25 -0.12500000000000006 -0.8125
v 0.25 -0.12500000000000006 -0.75
vt 0.25 0
vt 0.25 0.125
vt 0.5 0.125
vt 0.5 0
vt 0.4375 0.71875
vt 0.46875 0.71875
vt 0.46875 0.46875
vt 0.4375 0.46875
vt 0.25 0
vt 0.25 0.125
vt 0.5 0.125
vt 0.5 0
vt 0.4375 0.71875
vt 0.46875 0.71875
vt 0.46875 0.46875
vt 0.4375 0.46875
vt 0.5 0.6875
vt 0.5 0.8125
vt 0.53125 0.8125
vt 0.53125 0.6875
vt 0 1
vt 0.125 1
vt 0.125 0.96875
vt 0 0.96875
vn 0 0 -1
vn 2.220446049250313e-16 1 0
vn 0 0 1
vn -2.220446049250313e-16 -1 0
vn -1 2.220446049250313e-16 0
vn 1 -2.220446049250313e-16 0
usemtl m_5010f33b-9cd6-2c04-bc25-7dc2a1b1069b
f 60/148/37 63/147/37 61/146/37 58/145/37
f 59/152/38 60/151/38 58/150/38 57/149/38
f 64/156/39 59/155/39 57/154/39 62/153/39
f 63/160/40 64/159/40 62/158/40 61/157/40
f 62/164/41 57/163/41 58/162/41 61/161/41
f 63/168/42 60/167/42 59/166/42 64/165/42
o cube
v -0.1875 0 0.125
v -0.1875 0 -0.625
v -0.1875 -0.125 0.125
v -0.1875 -0.125 -0.625
v -0.25 0 -0.625
v -0.25 0 0.125
v -0.25 -0.125 -0.625
v -0.25 -0.125 0.125
vt 0.4375 0.78125
vt 0.46875 0.78125
vt 0.46875 0.71875
vt 0.4375 0.71875
vt 0.4375 0.78125
vt 0.46875 0.78125
vt 0.46875 0.71875
vt 0.4375 0.71875
vt 0 0.46875
vt 0.375 0.46875
vt 0.375 0.40625
vt 0 0.40625
vt 0.46875 0.8125
vt 0.5 0.8125
vt 0.5 0.4375
vt 0.46875 0.4375
vt 0.375 0.8125
vt 0.40625 0.8125
vt 0.40625 0.4375
vt 0.375 0.4375
vn 0 0 -1
vn 0 0 1
vn -1 0 0
vn 0 1 0
vn 0 -1 0
usemtl m_5010f33b-9cd6-2c04-bc25-7dc2a1b1069b
f 68/172/43 71/171/43 69/170/43 66/169/43
f 72/176/44 67/175/44 65/174/44 70/173/44
f 71/180/45 72/179/45 70/178/45 69/177/45
f 70/184/46 65/183/46 66/182/46 69/181/46
f 71/188/47 68/187/47 67/186/47 72/185/47
o cube
v 0.1875 0.125 -0.5625
v 0.1875 0.125 -0.75
v 0.1875 -0.125 -0.5625
v 0.1875 -0.125 -0.75
v -0.1875 0.125 -0.75
v -0.1875 0.125 -0.5625
v -0.1875 -0.125 -0.75
v -0.1875 -0.125 -0.5625
vt 0.78125 0.125
vt 0.6875 0.125
vt 0.6875 0
vt 0.78125 0
vt 0.6875 0.125
vt 0.78125 0.125
vt 0.78125 0
vt 0.6875 0
vt 0.71875 1
vt 0.90625 1
vt 0.90625 0.90625
vt 0.71875 0.90625
vt 0 0.90625
vt 0.1875 0.90625
vt 0.1875 1
vt 0 1
vn 1 0 0
vn -1 0 0
vn 0 1 0
vn 0 -1 0
usemtl m_5010f33b-9cd6-2c04-bc25-7dc2a1b1069b
f 75/192/48 76/191/48 74/190/48 73/189/48
f 79/196/49 80/195/49 78/194/49 77/193/49
f 78/200/50 73/199/50 74/198/50 77/197/50
f 79/204/51 76/203/51 75/202/51 80/201/51