# Made in Blockbench 4.9.4
mtllib arm_l.mtl

o cube
v -0.25047475771836847 1.7499793505080676 -0.37500180659645166
v -0.24857572684489454 1.750061948475798 -0.624994580210645
v -0.2507225516215591 0.9999794330038065 -0.37525148996271046
v -0.24882352074808511 1.0000620309715371 -0.6252442635769038
v -0.4360703070555395 1.750124369317362 -0.6264188327418156
v -0.4379693379290135 1.7500417713496317 -0.37642605912762234
v -0.43631810095873014 1.0001244518131014 -0.6266685161080745
v -0.4382171318322041 1.0000418538453708 -0.37667574249388114
vt 0.8125 0.875
vt 0.765625 0.875
vt 0.765625 0.6875
vt 0.8125 0.6875
vt 0.875 0.6875
vt 0.8125 0.6875
vt 0.8125 0.5
vt 0.875 0.5
vt 0.8125 0.6875
vt 0.875 0.6875
vt 0.875 0.5
vt 0.8125 0.5
vt 0.765625 0.6875
vt 0.8125 0.6875
vt 0.8125 0.625
vt 0.765625 0.625
vn 0.007596123493895774 0.0003303918709222672 -0.9999710944567733
vn 0.9999710944567733 -0.0003329111550102719 0.007596013499576974
vn -0.9999710944567733 0.0003329111550102719 -0.007596013499576974
vn 0.000330391870920814 0.9999998900056812 0.00033291115501171405
usemtl m_b9cd3f5d-3382-89fe-ef50-012ccd2ac067
f 4/4/1 7/3/1 5/2/1 2/1/1
f 3/8/2 4/7/2 2/6/2 1/5/2
f 7/12/3 8/11/3 6/10/3 5/9/3
f 6/16/4 1/15/4 2/14/4 5/13/4