# Made in Blockbench 4.9.4
mtllib body.mtl

o cube
v 0.25 1.75 -0.375
v 0.25 1.75 -0.625
v 0.25 1 -0.375
v 0.25 1 -0.625
v -0.25 1.75 -0.625
v -0.25 1.75 -0.375
v -0.25 1 -0.625
v -0.25 1 -0.375
vt 0.875 0.875
vt 1 0.875
vt 1 0.6875
vt 0.875 0.6875
vt 0.8125 0.875
vt 0.875 0.875
vt 0.875 0.6875
vt 0.8125 0.6875
vt 0.875 0.875
vt 0.8125 0.875
vt 0.8125 0.6875
vt 0.875 0.6875
vt 0.875 0.6875
vt 1 0.6875
vt 1 0.625
vt 0.875 0.625
vn 0 0 -1
vn 1 0 0
vn -1 0 0
vn 0 -1 0
usemtl m_b9cd3f5d-3382-89fe-ef50-012ccd2ac067
f 4/4/1 7/3/1 5/2/1 2/1/1
f 3/8/2 4/7/2 2/6/2 1/5/2
f 7/12/3 8/11/3 6/10/3 5/9/3
f 7/16/4 4/15/4 3/14/4 8/13/4