# Made in Blockbench 4.9.4
mtllib large_trommel_mesh.mtl

o cube
v 0.8125 1.375 0
v 0.8125 1.375 -3
v 0.8125 -0.25 0
v 0.8125 -0.25 -3
v 0.1875 1.375 0
v 0.1875 1.375 -3
v 0.1875 -0.25 0
v 0.1875 -0.25 -3
v 1.375 0.8125 0
v 1.375 0.8125 -3
v 1.375 0.1875 0
v 1.375 0.1875 -3
v -0.375 0.8125 0
v -0.375 0.8125 -3
v -0.375 0.1875 0
v -0.375 0.1875 -3
vt 0 0
vt 0 0.1562500000000001
vt 0.75 0.1562500000000001
vt 0.75 2.220446049250313e-16
vt 0.75 0
vt 0.75 0.1562500000000001
vt 0 0.1562500000000001
vt 0 2.220446049250313e-16
vt 0.75 0.15625
vt 0 0.15625
vt 0 0
vt 0.75 0
vt 0 0.15625
vt 0.75 0.15625
vt 0.75 0
vt 0 0
vt 0.75 0.15625
vt 0 0.15625
vt 0 0
vt 0.75 0
vt 0 0.15625
vt 0.75 0.15625
vt 0.75 0
vt 0 0
vt 0 0
vt 0 0.1562500000000001
vt 0.75 0.1562500000000001
vt 0.75 2.220446049250313e-16
vt 0.75 0
vt 0.75 0.1562500000000001
vt 0 0.1562500000000001
vt 0 2.220446049250313e-16
vn 0 -1 0
vn 0 1 0
vn -1 0 0
vn 1 0 0
vn -0.6139406135149205 0.7893522173763264 0
vn 0.7071067811865476 -0.7071067811865476 0
vn -0.7071067811865476 -0.7071067811865476 0
vn 0.6139406135149205 0.7893522173763264 0
usemtl m_4b41637a-506d-03c5-6389-f06f54572428
f 6/1/1 2/2/1 1/3/1 5/4/1
f 7/5/2 3/6/2 4/7/2 8/8/2
f 9/9/3 10/10/3 12/11/3 11/12/3
f 14/13/4 13/14/4 15/15/4 16/16/4
f 11/17/5 12/18/5 4/19/5 3/20/5
f 6/21/6 5/22/6 13/23/6 14/24/6
f 2/25/7 10/26/7 9/27/7 1/28/7
f 15/29/8 7/30/8 8/31/8 16/32/8
o cube
v 0.8125 1.375 0
v 0.8125 1.375 -3
v 0.8125 -0.25 0
v 0.8125 -0.25 -3
v 0.1875 1.375 0
v 0.1875 1.375 -3
v 0.1875 -0.25 0
v 0.1875 -0.25 -3
v 1.375 0.8125 0
v 1.375 0.8125 -3
v 1.375 0.1875 0
v 1.375 0.1875 -3
v -0.375 0.8125 0
v -0.375 0.8125 -3
v -0.375 0.1875 0
v -0.375 0.1875 -3
vt 0.75 0.1562500000000001
vt 0 0.1562500000000001
vt 0 0
vt 0.75 2.220446049250313e-16
vt 0 0.1562500000000001
vt 0.75 0.1562500000000001
vt 0.75 0
vt 0 2.220446049250313e-16
vt 0 0
vt 0 0.15625
vt 0.75 0.15625
vt 0.75 0
vt 0.75 0
vt 0.75 0.15625
vt 0 0.15625
vt 0 0
vt 0 0
vt 0 0.15625
vt 0.75 0.15625
vt 0.75 0
vt 0.75 0
vt 0.75 0.15625
vt 0 0.15625
vt 0 0
vt 0.75 0.1562500000000001
vt 0 0.1562500000000001
vt 0 0
vt 0.75 2.220446049250313e-16
vt 0 0.1562500000000001
vt 0.75 0.1562500000000001
vt 0.75 0
vt 0 2.220446049250313e-16
vn 0 1 0
vn 0 -1 0
vn 1 0 0
vn -1 0 0
vn 0.6139406135149205 -0.7893522173763264 0
vn -0.7071067811865476 0.7071067811865476 0
vn 0.7071067811865476 0.7071067811865476 0
vn -0.6139406135149205 -0.7893522173763264 0
usemtl m_4b41637a-506d-03c5-6389-f06f54572428
f 17/33/9 18/34/9 22/35/9 21/36/9
f 20/37/10 19/38/10 23/39/10 24/40/10
f 28/41/11 26/42/11 25/43/11 27/44/11
f 31/45/12 29/46/12 30/47/12 32/48/12
f 20/49/13 28/50/13 27/51/13 19/52/13
f 29/53/14 21/54/14 22/55/14 30/56/14
f 25/57/15 26/58/15 18/59/15 17/60/15
f 24/61/16 23/62/16 31/63/16 32/64/16