# Made in Blockbench 4.9.4
mtllib large_trommel.mtl

o cube
v -0.0625 -0.375 -2.4375
v -0.0625 -0.375 -2.5625
v -0.5 0.0625 -2.4375
v -0.5 0.0625 -2.5625
v -0.5 -0.375 -2.4375
v -0.5 -0.375 -2.5625
vt 0.4375 0.5
vt 0.4375 0.609375
vt 0.40625 0.609375
vt 0.40625 0.5
vt 0.296875 0.609375
vt 0.296875 0.5
vt 0.40625 0.5
vt 0.40625 0.5
vt 0.296875 0.5
vt 0.296875 0.609375
vn -1 0 0
vn 0 0 1
vn 0 0 -1
usemtl m_4b41637a-506d-03c5-6389-f06f54572428
f 5/1/1 3/2/1 4/3/1 6/4/1
f 3/5/2 5/6/2 1/7/2
f 2/8/3 6/9/3 4/10/3
o cube
v -0.0625 -0.375 -1.4375
v -0.0625 -0.375 -1.5625
v -0.5 0.0625 -1.4375
v -0.5 0.0625 -1.5625
v -0.5 -0.375 -1.4375
v -0.5 -0.375 -1.5625
vt 0.4375 0.5
vt 0.4375 0.609375
vt 0.40625 0.609375
vt 0.40625 0.5
vt 0.296875 0.609375
vt 0.296875 0.5
vt 0.40625 0.5
vt 0.40625 0.5
vt 0.296875 0.5
vt 0.296875 0.609375
vn -1 0 0
vn 0 0 1
vn 0 0 -1
usemtl m_4b41637a-506d-03c5-6389-f06f54572428
f 11/11/4 9/12/4 10/13/4 12/14/4
f 9/15/5 11/16/5 7/17/5
f 8/18/6 12/19/6 10/20/6
o cube
v -0.0625 -0.375 -0.4375
v -0.0625 -0.375 -0.5625
v -0.5 0.0625 -0.4375
v -0.5 0.0625 -0.5625
v -0.5 -0.375 -0.4375
v -0.5 -0.375 -0.5625
vt 0.4375 0.5
vt 0.4375 0.609375
vt 0.40625 0.609375
vt 0.40625 0.5
vt 0.296875 0.609375
vt 0.296875 0.5
vt 0.40625 0.5
vt 0.40625 0.5
vt 0.296875 0.5
vt 0.296875 0.609375
vn -1 0 0
vn 0 0 1
vn 0 0 -1
usemtl m_4b41637a-506d-03c5-6389-f06f54572428
f 17/21/7 15/22/7 16/23/7 18/24/7
f 15/25/8 17/26/8 13/27/8
f 14/28/9 18/29/9 16/30/9
o cube
v 1.0625 -0.375 -0.5625000000000001
v 1.0625 -0.375 -0.4375
v 1.5000000000000002 0.0625 -0.5625000000000001
v 1.5000000000000002 0.0625 -0.4375000000000002
v 1.5000000000000002 -0.375 -0.5625000000000001
v 1.5000000000000002 -0.375 -0.4375000000000002
vt 0.4375 0.5
vt 0.4375 0.609375
vt 0.40625 0.609375
vt 0.40625 0.5
vt 0.296875 0.609375
vt 0.296875 0.5
vt 0.40625 0.5
vt 0.40625 0.5
vt 0.296875 0.5
vt 0.296875 0.609375
vn 1 0 -1.2246467991473532e-16
vn -1.2246467991473532e-16 0 -1
vn 1.2246467991473532e-16 0 1
usemtl m_4b41637a-506d-03c5-6389-f06f54572428
f 23/31/10 21/32/10 22/33/10 24/34/10
f 21/35/11 23/36/11 19/37/11
f 20/38/12 24/39/12 22/40/12
o cube
v 1.0625 -0.375 -1.5625
v 1.0625 -0.375 -1.4375
v 1.5 0.0625 -1.5625000000000002
v 1.5 0.0625 -1.4375000000000002
v 1.5 -0.375 -1.5625000000000002
v 1.5 -0.375 -1.4375000000000002
vt 0.4375 0.5
vt 0.4375 0.609375
vt 0.40625 0.609375
vt 0.40625 0.5
vt 0.296875 0.609375
vt 0.296875 0.5
vt 0.40625 0.5
vt 0.40625 0.5
vt 0.296875 0.5
vt 0.296875 0.609375
vn 1 0 -1.2246467991473532e-16
vn -1.2246467991473532e-16 0 -1
vn 1.2246467991473532e-16 0 1
usemtl m_4b41637a-506d-03c5-6389-f06f54572428
f 29/41/13 27/42/13 28/43/13 30/44/13
f 27/45/14 29/46/14 25/47/14
f 26/48/15 30/49/15 28/50/15
o cube
v 1.0625 -0.375 -2.5625
v 1.0625 -0.375 -2.4375
v 1.5 0.0625 -2.5625
v 1.5 0.0625 -2.4375
v 1.5 -0.375 -2.5625
v 1.5 -0.375 -2.4375
vt 0.4375 0.5
vt 0.4375 0.609375
vt 0.40625 0.609375
vt 0.40625 0.5
vt 0.296875 0.609375
vt 0.296875 0.5
vt 0.40625 0.5
vt 0.40625 0.5
vt 0.296875 0.5
vt 0.296875 0.609375
vn 1 0 -1.2246467991473532e-16
vn -1.2246467991473532e-16 0 -1
vn 1.2246467991473532e-16 0 1
usemtl m_4b41637a-506d-03c5-6389-f06f54572428
f 35/51/16 33/52/16 34/53/16 36/54/16
f 33/55/17 35/56/17 31/57/17
f 32/58/18 36/59/18 34/60/18
o cube
v 0.5 -0.375 0
v 0.5 -0.375 -1
v 0.5 -0.5 0
v 0.5 -0.5 -1
v -0.5 -0.375 -1
v -0.5 -0.375 0
v -0.5 -0.5 -1
v -0.5 -0.5 0
vt 0.71875 0.75
vt 0.71875 1
vt 0.75 1
vt 0.75 0.75
vt 0.75 1
vt 1 1
vt 1 0.75
vt 0.75 0.75
vt 0.75 1
vt 1 1
vt 1 0.75
vt 0.75 0.75
vn -1 0 0
vn 0 1 0
vn 0 -1 0
usemtl m_4b41637a-506d-03c5-6389-f06f54572428
f 43/64/19 44/63/19 42/62/19 41/61/19
f 42/68/20 37/67/20 38/66/20 41/65/20
f 43/72/21 40/71/21 39/70/21 44/69/21
o cube
v 0.5 -0.375 -1
v 0.5 -0.375 -2
v 0.5 -0.5 -1
v 0.5 -0.5 -2
v -0.5 -0.375 -2
v -0.5 -0.375 -1
v -0.5 -0.5 -2
v -0.5 -0.5 -1
vt 0.71875 0.75
vt 0.71875 1
vt 0.75 1
vt 0.75 0.75
vt 0.75 1
vt 1 1
vt 1 0.75
vt 0.75 0.75
vt 0.75 1
vt 1 1
vt 1 0.75
vt 0.75 0.75
vn -1 0 0
vn 0 1 0
vn 0 -1 0
usemtl m_4b41637a-506d-03c5-6389-f06f54572428
f 51/76/22 52/75/22 50/74/22 49/73/22
f 50/80/23 45/79/23 46/78/23 49/77/23
f 51/84/24 48/83/24 47/82/24 52/81/24
o cube
v 0.5 -0.375 -2
v 0.5 -0.375 -3
v 0.5 -0.5 -2
v 0.5 -0.5 -3
v -0.5 -0.375 -3
v -0.5 -0.375 -2
v -0.5 -0.5 -3
v -0.5 -0.5 -2
vt 0.71875 0.75
vt 0.71875 1
vt 0.75 1
vt 0.75 0.75
vt 0.75 1
vt 1 1
vt 1 0.75
vt 0.75 0.75
vt 0.75 1
vt 1 1
vt 1 0.75
vt 0.75 0.75
vn -1 0 0
vn 0 1 0
vn 0 -1 0
usemtl m_4b41637a-506d-03c5-6389-f06f54572428
f 59/88/25 60/87/25 58/86/25 57/85/25
f 58/92/26 53/91/26 54/90/26 57/89/26
f 59/96/27 56/95/27 55/94/27 60/93/27
o cube
v 0.5 -0.375 -2
v 0.5 -0.375 -1
v 0.5 -0.5 -2
v 0.5 -0.5 -1
v 1.5 -0.375 -1
v 1.5 -0.375 -2
v 1.5 -0.5 -1
v 1.5 -0.5 -2
vt 0.71875 0.75
vt 0.71875 1
vt 0.75 1
vt 0.75 0.75
vt 0.75 1
vt 1 1
vt 1 0.75
vt 0.75 0.75
vt 0.75 1
vt 1 1
vt 1 0.75
vt 0.75 0.75
vn 1 0 -1.2246467991473532e-16
vn 0 1 0
vn 0 -1 0
usemtl m_4b41637a-506d-03c5-6389-f06f54572428
f 67/100/28 68/99/28 66/98/28 65/97/28
f 66/104/29 61/103/29 62/102/29 65/101/29
f 67/108/30 64/107/30 63/106/30 68/105/30
o cube
v 0.4999999999999998 -0.375 -3
v 0.5 -0.375 -2
v 0.4999999999999998 -0.5 -3
v 0.5 -0.5 -2
v 1.5 -0.375 -2
v 1.4999999999999998 -0.375 -3
v 1.5 -0.5 -2
v 1.4999999999999998 -0.5 -3
vt 0.71875 0.75
vt 0.71875 1
vt 0.75 1
vt 0.75 0.75
vt 0.75 1
vt 1 1
vt 1 0.75
vt 0.75 0.75
vt 0.75 1
vt 1 1
vt 1 0.75
vt 0.75 0.75
vn 1 0 -1.2246467991473532e-16
vn 0 1 0
vn 0 -1 0
usemtl m_4b41637a-506d-03c5-6389-f06f54572428
f 75/112/31 76/111/31 74/110/31 73/109/31
f 74/116/32 69/115/32 70/114/32 73/113/32
f 75/120/33 72/119/33 71/118/33 76/117/33
o cube
v 0.5 -0.375 -1
v 0.5000000000000002 -0.375 0
v 0.5 -0.5 -1
v 0.5000000000000002 -0.5 0
v 1.5 -0.375 -2.220446049250313e-16
v 1.5 -0.375 -1
v 1.5 -0.5 -2.220446049250313e-16
v 1.5 -0.5 -1
vt 0.71875 0.75
vt 0.71875 1
vt 0.75 1
vt 0.75 0.75
vt 0.75 1
vt 1 1
vt 1 0.75
vt 0.75 0.75
vt 0.75 1
vt 1 1
vt 1 0.75
vt 0.75 0.75
vn 1 0 -1.2246467991473532e-16
vn 0 1 0
vn 0 -1 0
usemtl m_4b41637a-506d-03c5-6389-f06f54572428
f 83/124/34 84/123/34 82/122/34 81/121/34
f 82/128/35 77/127/35 78/126/35 81/125/35
f 83/132/36 80/131/36 79/130/36 84/129/36
o cube
v 0.9375 1.4999999999999996 0
v 0.9375 1.4999999999999996 -0.5
v 1.0625000000000002 -0.375 0
v 1.0625 -0.375 -0.5
v 0.0625 1.4999999999999996 0
v 0.0625 1.4999999999999996 -0.5
v -0.0625 -0.375 0
v -0.0625 -0.375 -0.5
v 1.5 0.9375 0
v 1.5 0.9375 -0.5
v 1.5 0.0625 0
v 1.5 0.0625 -0.5
v -0.5 0.9375 0
v -0.5 0.9375 -0.5
v -0.5 0.0625 0
v -0.5 0.0625 -0.5
v -0.5 0.0625 -1.5
v -0.0625 -0.375 -1.5
v 1.0625 -0.375 -1.5
v 1.5 0.0625 -1.5
v 1.0625 -0.375 -2.5
v 1.5 0.0625 -2.5
v -0.0625 -0.375 -2.5
v -0.5 0.0625 -2.5
v 1.0625000000000002 -0.375 -3
v 1.5 0.0625 -3
v -0.0625 -0.375 -3
v -0.5 0.0625 -3
v -0.5 0.4375 -0.5
v -0.5 0.4375 -1.5
v -0.5 0.4375 -2.5
v -0.5 0.4375 -3
v 1.5 0.4375 -1.5
v 1.5 0.4375 -0.5
v 1.5 0.4375 -3
v 1.5 0.4375 -2.5
v 0.5 0.9375 -0.5
v 0.5 1.4999999999999996 -0.5
v 0.5 0.9375 -0.5
v 0.5 0.0625 -0.5
v -0.4375 0.4375 -2.5
v -0.4375 0.4375 -3
v -0.4375 0.4375 -1.5
v -0.4375 0.4375 -0.5
v 1.4375 0.4375 -3
v 1.4375 0.4375 -2.5
v 1.4375 0.4375 -1.5
v 1.4375 0.4375 -0.5
vt 0.625 0.53125
vt 0.75 0.53125
vt 0.75 0.75
vt 0.625 0.75
vt 0.75 0.53125
vt 0.75 0.75
vt 0.625 0.75
vt 0.625 0.53125
vt 0.75 0.53125
vt 0.75 0.75
vt 0.625 0.75
vt 0.625 0.53125
vt 0.75 0.551125
vt 0.75 0.75
vt 0.625 0.75
vt 0.625 0.551125
vt 1 0.5015703125000001
vt 1 0.65625
vt 0.875 0.65625
vt 0.875 0.5015703125000001
vt 0.75 0.75
vt 0.625 0.75
vt 0.625 0.551125
vt 0.75 0.551125
vt 0.875 0.5015703125000001
vt 1 0.5015703125000001
vt 1 0.65625
vt 0.875 0.65625
vt 1 0.65625
vt 0.75 0.65625
vt 0.75 0.5015703125000001
vt 1 0.5015703125000001
vt 1 0.5015703125000001
vt 0.75 0.5015703125000001
vt 0.75 0.65625
vt 1 0.65625
vt 1 0.5015703125000001
vt 0.75 0.5015703125000001
vt 0.75 0.65625
vt 1 0.65625
vt 1 0.65625
vt 0.75 0.65625
vt 0.75 0.5015703125000001
vt 1 0.5015703125000001
vt 1 0.5015703125000001
vt 0.875 0.5015703125000001
vt 0.875 0.65625
vt 1 0.65625
vt 0.875 0.65625
vt 1 0.65625
vt 1 0.5015703125000001
vt 0.875 0.5015703125000001
vt 1 0.65625
vt 1 0.75
vt 0.75 0.75
vt 0.75 0.65625
vt 1 0.65625
vt 1 0.75
vt 0.75 0.75
vt 0.75 0.65625
vt 0.875 0.65625
vt 0.875 0.75
vt 1 0.75
vt 1 0.65625
vt 1 0.65625
vt 1 0.75
vt 0.75 0.75
vt 0.75 0.65625
vt 1 0.65625
vt 1 0.75
vt 0.75 0.75
vt 0.75 0.65625
vt 1 0.65625
vt 1 0.75
vt 0.875 0.75
vt 0.875 0.65625
vt 0.25 0.359375
vt 0 0.359375
vt 0 0.5
vt 0.109375 0.5
vt 0.109375 0.5
vt 0 0.5
vt 0 0.359375
vt 0.25 0.359375
vt 0.25 0.5
vt 0.5 0.5
vt 0.5 0.28125
vt 0.25 0.28125
vt 0.25 0.28125
vt 0.5 0.28125
vt 0.5 0.5
vt 0.25 0.5
vt 0.734375 0.625
vt 0.75 0.625
vt 0.75 0.75
vt 0.734375 0.75
vt 0.734375 0.53125
vt 0.75 0.53125
vt 0.75 0.78125
vt 0.734375 0.78125
vt 0.734375 0.53125
vt 0.75 0.53125
vt 0.75 0.78125
vt 0.734375 0.78125
vt 0.734375 0.625
vt 0.75 0.625
vt 0.75 0.75
vt 0.734375 0.75
vt 0.734375 0.53125
vt 0.75 0.53125
vt 0.75 0.78125
vt 0.734375 0.78125
vt 0.734375 0.53125
vt 0.75 0.53125
vt 0.75 0.78125
vt 0.734375 0.78125
vn 0 1 0
vn 1 0 0
vn -1 0 0
vn 0.7071067811865472 0.7071067811865478 0
vn -0.7071067811865476 -0.7071067811865476 0
vn -0.7071067811865472 0.7071067811865478 0
vn 0.7071067811865478 -0.7071067811865475 0
vn -0.7071067811865476 -0.7071067811865476 0
vn 0.7071067811865476 -0.7071067811865476 0
vn 0.7071067811865476 -0.7071067811865476 0
vn -0.7071067811865476 -0.7071067811865476 0
vn 0.7071067811865477 -0.7071067811865474 3.1401849173675523e-16
vn -0.7071067811865476 -0.7071067811865476 0
vn -1 0 0
vn -1 0 0
vn -1 0 0
vn 1 0 0
vn 1 0 0
vn 1 0 0
vn 0 0 -1
vn 0 0 -1
vn 0 0 -1
vn 0 0 -1
vn 0 1 0
vn 0 1 0
vn 0 1 0
vn 0 1 0
vn 0 1 0
vn 0 1 0
usemtl m_4b41637a-506d-03c5-6389-f06f54572428
f 85/133/37 86/134/37 90/135/37 89/136/37
f 96/137/38 94/138/38 93/139/38 95/140/38
f 99/141/39 97/142/39 98/143/39 100/144/39
f 94/145/40 86/146/40 85/147/40 93/148/40
f 91/149/41 99/150/41 100/151/41 92/152/41
f 89/153/42 90/154/42 98/155/42 97/156/42
f 96/157/43 95/158/43 87/159/43 88/160/43
f 100/161/44 101/162/44 102/163/44 92/164/44
f 88/165/45 103/166/45 104/167/45 96/168/45
f 103/169/46 105/170/46 106/171/46 104/172/46
f 101/173/47 108/174/47 107/175/47 102/176/47
f 105/177/48 109/178/48 110/179/48 106/180/48
f 108/181/49 112/182/49 111/183/49 107/184/49
f 100/185/50 113/186/50 114/187/50 101/188/50
f 101/189/51 114/190/51 115/191/51 108/192/51
f 108/193/52 115/194/52 116/195/52 112/196/52
f 104/197/53 117/198/53 118/199/53 96/200/53
f 106/201/54 120/202/54 117/203/54 104/204/54
f 110/205/55 119/206/55 120/207/55 106/208/55
f 94/209/56 121/210/56 122/211/56 86/212/56
f 90/213/57 122/214/57 121/215/57 98/216/57
f 98/217/58 123/218/58 124/219/58 100/220/58
f 96/221/59 124/222/59 123/223/59 94/224/59
f 115/225/60 125/226/60 126/227/60 116/228/60
f 114/229/61 127/230/61 125/231/61 115/232/61
f 113/233/62 128/234/62 127/235/62 114/236/62
f 119/237/63 129/238/63 130/239/63 120/240/63
f 120/241/64 130/242/64 131/243/64 117/244/64
f 117/245/65 131/246/65 132/247/65 118/248/65
o cube
v 1 1.5 -3
v 1 1.5 -3.5
v 1 0.5 -3
v 1 0.5 -3.5
v 0.5 1.5 -3
v 0.5 1.5 -3.5
v 0.5 0.5 -3
v 0.5 0.5 -3.5
v 1.5 1 -3.5
v 1.5 1 -3
v 1.5 0.5 -3.5
v 1.5 0.5 -3
v -0.5 1 -3.5
v -0.5 1 -3
v 0 1.5 -3
v 0 1.5 -3.5
vt 0.296875 0.5
vt 0.171875 0.5
vt 0.171875 0.625
vt 0.296875 0.625
vt 0.375 0.625
vt 0.375 0.75
vt 0.25 0.75
vt 0.25 0.625
vt 0.375 0.75
vt 0.375 1
vt 0.25 1
vt 0.25 0.75
vt 0.375 0.75
vt 0.375 1
vt 0.25 1
vt 0.25 0.75
vt 0.5 0.875
vt 0.5 0.75
vt 0.375 0.75
vt 0.375 1
vt 0 0.625
vt 0 0.5
vt 0.171875 0.5
vt 0.171875 0.625
vt 0.5 0.75
vt 0.5 0.875
vt 0.375 1
vt 0.375 0.75
vt 0.046875 0.7391304347826086
vt 0.046875 0.9130434782608696
vt 0.03125 0.9130434782608696
vt 0.03125 0.7391304347826086
vt 0 0.625
vt 0 0.5
vt 0.171875 0.5
vt 0.171875 0.625
vn 1 0 0
vn 0 1 0
vn 0 0 1
vn 0 0 -1
vn 0 0 -1
vn 0.7071067811865476 0.7071067811865476 0
vn 0 0 1
vn 0 -1 0
vn -0.7071067811865476 0.7071067811865476 0
usemtl m_4b41637a-506d-03c5-6389-f06f54572428
f 143/249/66 141/250/66 142/251/66 144/252/66
f 133/253/67 134/254/67 138/255/67 137/256/67
f 135/257/68 133/258/68 137/259/68 139/260/68
f 140/261/69 138/262/69 134/263/69 136/264/69
f 141/265/70 143/266/70 136/267/70 134/268/70
f 142/269/71 141/270/71 134/271/71 133/272/71
f 144/273/72 142/274/72 133/275/72 135/276/72
usemtl none
f 143/277/73 144/278/73 135/279/73 136/280/73
usemtl m_4b41637a-506d-03c5-6389-f06f54572428
f 145/281/74 146/282/74 147/283/74 148/284/74
o cube
v 0.5 1.5 -3
v 0.5 1.5 -3.5
v 0.5 0.5 -3
v 0.5 0.5 -3.5
v 0 1.5 -3
v 0 1.5 -3.5
v 0 0.5 -3
v 0 0.5 -3.5
v -0.5 1 -3
v -0.5 1 -3.5
v -0.5 0.5 -3
v -0.5 0.5 -3.5
vt 0.296875 0.5
vt 0.171875 0.5
vt 0.171875 0.625
vt 0.296875 0.625
vt 0.5 0.625
vt 0.5 0.75
vt 0.375 0.75
vt 0.375 0.625
vt 0.375 0.75
vt 0.375 1
vt 0.25 1
vt 0.25 0.75
vt 0.25 0.75
vt 0.25 1
vt 0.375 1
vt 0.375 0.75
vt 0.5 0.875
vt 0.5 0.75
vt 0.375 0.75
vt 0.375 1
vt 0 0.625
vt 0 0.5
vt 0.171875 0.5
vt 0.171875 0.625
vt 0.5 0.75
vt 0.5 0.875
vt 0.375 1
vt 0.375 0.75
vt 0.15625 0.9375
vt 0.15625 0.8125
vt 0.171875 0.8125
vt 0.171875 0.9375
vn -1 0 0
vn 0 1 0
vn 0 0 1
vn 0 0 -1
vn 0 0 1
vn -0.7071067811865476 0.7071067811865476 0
vn 0 0 -1
vn 0 -1 0
usemtl m_4b41637a-506d-03c5-6389-f06f54572428
f 159/285/75 157/286/75 158/287/75 160/288/75
f 149/289/76 150/290/76 154/291/76 153/292/76
f 151/293/77 149/294/77 153/295/77 155/296/77
f 156/297/78 154/298/78 150/299/78 152/300/78
f 157/301/79 159/302/79 155/303/79 153/304/79
f 158/305/80 157/306/80 153/307/80 154/308/80
f 160/309/81 158/310/81 154/311/81 156/312/81
f 159/313/82 160/314/82 156/315/82 155/316/82
o cube
v 1.5 0.5 -3
v 1.5 0.5 -3.5
v 1.5 -0.5 -3
v 1.5 -0.5 -3.5
v 0.5 0.5 -3.5
v 0.5 0.5 -3
v 0.5 -0.5 -3.5
v 0.5 -0.5 -3
vt 0 1
vt 0.25 1
vt 0.25 0.75
vt 0 0.75
vt 0.25 0.625
vt 0.25 0.75
vt 0 0.75
vt 0 0.625
vt 0.25 0.75
vt 0 0.75
vt 0 1
vt 0.25 1
vt 0.5 0.75
vt 0.5 1
vt 0.625 1
vt 0.625 0.75
vn 0 0 -1
vn 1 0 0
vn 0 0 1
vn 0 -1 0
usemtl m_4b41637a-506d-03c5-6389-f06f54572428
f 164/320/83 167/319/83 165/318/83 162/317/83
f 163/324/84 164/323/84 162/322/84 161/321/84
f 168/328/85 163/327/85 161/326/85 166/325/85
f 167/332/86 164/331/86 163/330/86 168/329/86
o cube
v 0.5 0.5 -3
v 0.5 0.5 -3.5
v 0.5 -0.5 -3
v 0.5 -0.5 -3.5
v -0.5 0.5 -3.5
v -0.5 0.5 -3
v -0.5 -0.5 -3.5
v -0.5 -0.5 -3
vt 0.25 1
vt 0 1
vt 0 0.75
vt 0.25 0.75
vt 0 0.75
vt 0.25 0.75
vt 0.25 1
vt 0 1
vt 0.25 0.625
vt 0.25 0.75
vt 0 0.75
vt 0 0.625
vt 0.5 1
vt 0.5 0.75
vt 0.625 0.75
vt 0.625 1
vn 0 0 -1
vn 0 0 1
vn -1 0 0
vn 0 -1 0
usemtl m_4b41637a-506d-03c5-6389-f06f54572428
f 172/336/87 175/335/87 173/334/87 170/333/87
f 176/340/88 171/339/88 169/338/88 174/337/88
f 175/344/89 176/343/89 174/342/89 173/341/89
f 175/348/90 172/347/90 171/346/90 176/345/90
o cube
v 0.5 0.5 0.5
v 0.5 0.5 0
v 0.5 -0.5 0.5
v 0.5 -0.5 0
v -0.5 0.5 0
v -0.5 0.5 0.5
v -0.5 -0.5 0
v -0.5 -0.5 0.5
vt 0.25 0.75
vt 0 0.75
vt 0 1
vt 0.25 1
vt 0 1
vt 0.25 1
vt 0.25 0.75
vt 0 0.75
vt 0.25 0.625
vt 0.25 0.75
vt 0 0.75
vt 0 0.625
vt 0.5 1
vt 0.5 0.75
vt 0.625 0.75
vt 0.625 1
vn 0 0 -1
vn 0 0 1
vn -1 0 0
vn 0 -1 0
usemtl m_4b41637a-506d-03c5-6389-f06f54572428
f 180/352/91 183/351/91 181/350/91 178/349/91
f 184/356/92 179/355/92 177/354/92 182/353/92
f 183/360/93 184/359/93 182/358/93 181/357/93
f 183/364/94 180/363/94 179/362/94 184/361/94
o cube
v 1.5 0.5 0.5
v 1.5 0.5 0
v 1.5 -0.5 0.5
v 1.5 -0.5 0
v 0.5 0.5 0
v 0.5 0.5 0.5
v 0.5 -0.5 0
v 0.5 -0.5 0.5
vt 0 0.75
vt 0.25 0.75
vt 0.25 1
vt 0 1
vt 0.25 0.625
vt 0.25 0.75
vt 0 0.75
vt 0 0.625
vt 0.25 1
vt 0 1
vt 0 0.75
vt 0.25 0.75
vt 0.5 0.75
vt 0.5 1
vt 0.625 1
vt 0.625 0.75
vn 0 0 -1
vn 1 0 0
vn 0 0 1
vn 0 -1 0
usemtl m_4b41637a-506d-03c5-6389-f06f54572428
f 188/368/95 191/367/95 189/366/95 186/365/95
f 187/372/96 188/371/96 186/370/96 185/369/96
f 192/376/97 187/375/97 185/374/97 190/373/97
f 191/380/98 188/379/98 187/378/98 192/377/98
o cube
v 0.5 1.5 0.5
v 0.5 1.5 0
v 0.5 0.5 0.5
v 0.5 0.5 0
v 0 1.5 0.5
v 0 1.5 0
v 0 0.5 0.5
v 0 0.5 0
v -0.5 1 0.5
v -0.5 1 0
v -0.5 0.5 0.5
v -0.5 0.5 0
vt 0.296875 0.5
vt 0.171875 0.5
vt 0.171875 0.625
vt 0.296875 0.625
vt 0.5 0.625
vt 0.5 0.75
vt 0.375 0.75
vt 0.375 0.625
vt 0.375 0.75
vt 0.375 1
vt 0.25 1
vt 0.25 0.75
vt 0.375 0.75
vt 0.375 1
vt 0.25 1
vt 0.25 0.75
vt 0.5 0.875
vt 0.5 0.75
vt 0.375 0.75
vt 0.375 1
vt 0 0.625
vt 0 0.5
vt 0.171875 0.5
vt 0.171875 0.625
vt 0.5 0.75
vt 0.5 0.875
vt 0.375 1
vt 0.375 0.75
vt 0.15625 0.9375
vt 0.15625 0.8125
vt 0.171875 0.8125
vt 0.171875 0.9375
vn -1 0 0
vn 0 1 0
vn 0 0 1
vn 0 0 -1
vn 0 0 1
vn -0.7071067811865476 0.7071067811865476 0
vn 0 0 -1
vn 0 -1 0
usemtl m_4b41637a-506d-03c5-6389-f06f54572428
f 203/381/99 201/382/99 202/383/99 204/384/99
f 193/385/100 194/386/100 198/387/100 197/388/100
f 195/389/101 193/390/101 197/391/101 199/392/101
f 200/393/102 198/394/102 194/395/102 196/396/102
f 201/397/103 203/398/103 199/399/103 197/400/103
f 202/401/104 201/402/104 197/403/104 198/404/104
f 204/405/105 202/406/105 198/407/105 200/408/105
f 203/409/106 204/410/106 200/411/106 199/412/106
o cube
v 1 1.5 0.5
v 1 1.5 0
v 1 0.5 0.5
v 1 0.5 0
v 0.5 1.5 0.5
v 0.5 1.5 0
v 0.5 0.5 0.5
v 0.5 0.5 0
v 1.5 1 0
v 1.5 1 0.5
v 1.5 0.5 0
v 1.5 0.5 0.5
v -0.5 1 0
v -0.5 1 0.5
v 0 1.5 0.5
v 0 1.5 0
vt 0.296875 0.5
vt 0.171875 0.5
vt 0.171875 0.625
vt 0.296875 0.625
vt 0.375 0.625
vt 0.375 0.75
vt 0.25 0.75
vt 0.25 0.625
vt 0.25 0.75
vt 0.25 1
vt 0.375 1
vt 0.375 0.75
vt 0.375 0.75
vt 0.375 1
vt 0.25 1
vt 0.25 0.75
vt 0.5 0.875
vt 0.5 0.75
vt 0.375 0.75
vt 0.375 1
vt 0 0.625
vt 0 0.5
vt 0.171875 0.5
vt 0.171875 0.625
vt 0.5 0.75
vt 0.5 0.875
vt 0.375 1
vt 0.375 0.75
vt 0.046875 0.7391304347826086
vt 0.046875 0.9130434782608696
vt 0.03125 0.9130434782608696
vt 0.03125 0.7391304347826086
vt 0 0.625
vt 0 0.5
vt 0.171875 0.5
vt 0.171875 0.625
vn 1 0 0
vn 0 1 0
vn 0 0 1
vn 0 0 -1
vn 0 0 -1
vn 0.7071067811865476 0.7071067811865476 0
vn 0 0 1
vn 0 -1 0
vn -0.7071067811865476 0.7071067811865476 0
usemtl m_4b41637a-506d-03c5-6389-f06f54572428
f 215/413/107 213/414/107 214/415/107 216/416/107
f 205/417/108 206/418/108 210/419/108 209/420/108
f 207/421/109 205/422/109 209/423/109 211/424/109
f 212/425/110 210/426/110 206/427/110 208/428/110
f 213/429/111 215/430/111 208/431/111 206/432/111
f 214/433/112 213/434/112 206/435/112 205/436/112
f 216/437/113 214/438/113 205/439/113 207/440/113
usemtl none
f 215/441/114 216/442/114 207/443/114 208/444/114
usemtl m_4b41637a-506d-03c5-6389-f06f54572428
f 217/445/115 218/446/115 219/447/115 220/448/115