# Made in Blockbench 4.9.4
mtllib large_trommel.mtl

o cube
v -0.0625 -0.375 -2.4375
v -0.0625 -0.375 -2.5625
v -0.5 0.0625 -2.4375
v -0.5 0.0625 -2.5625
v -0.5 -0.375 -2.4375
v -0.5 -0.375 -2.5625
vt 0.4375 0.5
vt 0.4375 0.609375
vt 0.40625 0.609375
vt 0.40625 0.5
vt 0.296875 0.609375
vt 0.296875 0.5
vt 0.40625 0.5
vt 0.40625 0.5
vt 0.296875 0.5
vt 0.296875 0.609375
vn -1 0 0
vn 0 0 1
vn 0 0 -1
usemtl m_4b41637a-506d-03c5-6389-f06f54572428
f 5/1/1 3/2/1 4/3/1 6/4/1
f 3/5/2 5/6/2 1/7/2
f 2/8/3 6/9/3 4/10/3
o cube
v -0.0625 -0.375 -1.4375
v -0.0625 -0.375 -1.5625
v -0.5 0.0625 -1.4375
v -0.5 0.0625 -1.5625
v -0.5 -0.375 -1.4375
v -0.5 -0.375 -1.5625
vt 0.4375 0.5
vt 0.4375 0.609375
vt 0.40625 0.609375
vt 0.40625 0.5
vt 0.296875 0.609375
vt 0.296875 0.5
vt 0.40625 0.5
vt 0.40625 0.5
vt 0.296875 0.5
vt 0.296875 0.609375
vn -1 0 0
vn 0 0 1
vn 0 0 -1
usemtl m_4b41637a-506d-03c5-6389-f06f54572428
f 11/11/4 9/12/4 10/13/4 12/14/4
f 9/15/5 11/16/5 7/17/5
f 8/18/6 12/19/6 10/20/6
o cube
v -0.0625 -0.375 -0.4375
v -0.0625 -0.375 -0.5625
v -0.5 0.0625 -0.4375
v -0.5 0.0625 -0.5625
v -0.5 -0.375 -0.4375
v -0.5 -0.375 -0.5625
vt 0.4375 0.5
vt 0.4375 0.609375
vt 0.40625 0.609375
vt 0.40625 0.5
vt 0.296875 0.609375
vt 0.296875 0.5
vt 0.40625 0.5
vt 0.40625 0.5
vt 0.296875 0.5
vt 0.296875 0.609375
vn -1 0 0
vn 0 0 1
vn 0 0 -1
usemtl m_4b41637a-506d-03c5-6389-f06f54572428
f 17/21/7 15/22/7 16/23/7 18/24/7
f 15/25/8 17/26/8 13/27/8
f 14/28/9 18/29/9 16/30/9
o cube
v 1.0625 -0.375 -0.5625000000000001
v 1.0625 -0.375 -0.4375
v 1.5000000000000002 0.0625 -0.5625000000000001
v 1.5000000000000002 0.0625 -0.4375000000000002
v 1.5000000000000002 -0.375 -0.5625000000000001
v 1.5000000000000002 -0.375 -0.4375000000000002
vt 0.4375 0.5
vt 0.4375 0.609375
vt 0.40625 0.609375
vt 0.40625 0.5
vt 0.296875 0.609375
vt 0.296875 0.5
vt 0.40625 0.5
vt 0.40625 0.5
vt 0.296875 0.5
vt 0.296875 0.609375
vn 1 0 -1.2246467991473532e-16
vn -1.2246467991473532e-16 0 -1
vn 1.2246467991473532e-16 0 1
usemtl m_4b41637a-506d-03c5-6389-f06f54572428
f 23/31/10 21/32/10 22/33/10 24/34/10
f 21/35/11 23/36/11 19/37/11
f 20/38/12 24/39/12 22/40/12
o cube
v 1.0625 -0.375 -1.5625
v 1.0625 -0.375 -1.4375
v 1.5 0.0625 -1.5625000000000002
v 1.5 0.0625 -1.4375000000000002
v 1.5 -0.375 -1.5625000000000002
v 1.5 -0.375 -1.4375000000000002
vt 0.4375 0.5
vt 0.4375 0.609375
vt 0.40625 0.609375
vt 0.40625 0.5
vt 0.296875 0.609375
vt 0.296875 0.5
vt 0.40625 0.5
vt 0.40625 0.5
vt 0.296875 0.5
vt 0.296875 0.609375
vn 1 0 -1.2246467991473532e-16
vn -1.2246467991473532e-16 0 -1
vn 1.2246467991473532e-16 0 1
usemtl m_4b41637a-506d-03c5-6389-f06f54572428
f 29/41/13 27/42/13 28/43/13 30/44/13
f 27/45/14 29/46/14 25/47/14
f 26/48/15 30/49/15 28/50/15
o cube
v 1.0625 -0.375 -2.5625
v 1.0625 -0.375 -2.4375
v 1.5 0.0625 -2.5625
v 1.5 0.0625 -2.4375
v 1.5 -0.375 -2.5625
v 1.5 -0.375 -2.4375
vt 0.4375 0.5
vt 0.4375 0.609375
vt 0.40625 0.609375
vt 0.40625 0.5
vt 0.296875 0.609375
vt 0.296875 0.5
vt 0.40625 0.5
vt 0.40625 0.5
vt 0.296875 0.5
vt 0.296875 0.609375
vn 1 0 -1.2246467991473532e-16
vn -1.2246467991473532e-16 0 -1
vn 1.2246467991473532e-16 0 1
usemtl m_4b41637a-506d-03c5-6389-f06f54572428
f 35/51/16 33/52/16 34/53/16 36/54/16
f 33/55/17 35/56/17 31/57/17
f 32/58/18 36/59/18 34/60/18
o cube
v 0.8125 1.375 0
v 0.8125 1.375 -3
v 0.8125 -0.25 0
v 0.8125 -0.25 -3
v 0.1875 1.375 0
v 0.1875 1.375 -3
v 0.1875 -0.25 0
v 0.1875 -0.25 -3
v 1.375 0.8125 0
v 1.375 0.8125 -3
v 1.375 0.1875 0
v 1.375 0.1875 -3
v -0.375 0.8125 0
v -0.375 0.8125 -3
v -0.375 0.1875 0
v -0.375 0.1875 -3
vt 0.75 0.1562500000000001
vt 0 0.1562500000000001
vt 0 0
vt 0.75 2.220446049250313e-16
vt 0 0.1562500000000001
vt 0.75 0.1562500000000001
vt 0.75 0
vt 0 2.220446049250313e-16
vt 0 0
vt 0 0.15625
vt 0.75 0.15625
vt 0.75 0
vt 0.75 0
vt 0.75 0.15625
vt 0 0.15625
vt 0 0
vt 0 0
vt 0 0.15625
vt 0.75 0.15625
vt 0.75 0
vt 0.75 0
vt 0.75 0.15625
vt 0 0.15625
vt 0 0
vt 0.75 0.1562500000000001
vt 0 0.1562500000000001
vt 0 0
vt 0.75 2.220446049250313e-16
vt 0 0.1562500000000001
vt 0.75 0.1562500000000001
vt 0.75 0
vt 0 2.220446049250313e-16
vn 0 1 0
vn 0 -1 0
vn 1 0 0
vn -1 0 0
vn 0.6139406135149205 -0.7893522173763264 0
vn -0.7071067811865476 0.7071067811865476 0
vn 0.7071067811865476 0.7071067811865476 0
vn -0.6139406135149205 -0.7893522173763264 0
usemtl m_4b41637a-506d-03c5-6389-f06f54572428
f 37/61/19 38/62/19 42/63/19 41/64/19
f 40/65/20 39/66/20 43/67/20 44/68/20
f 48/69/21 46/70/21 45/71/21 47/72/21
f 51/73/22 49/74/22 50/75/22 52/76/22
f 40/77/23 48/78/23 47/79/23 39/80/23
f 49/81/24 41/82/24 42/83/24 50/84/24
f 45/85/25 46/86/25 38/87/25 37/88/25
f 44/89/26 43/90/26 51/91/26 52/92/26
o inverted
v 0.8125 1.375 0
v 0.8125 1.375 -3
v 0.8125 -0.25 0
v 0.8125 -0.25 -3
v 0.1875 1.375 0
v 0.1875 1.375 -3
v 0.1875 -0.25 0
v 0.1875 -0.25 -3
v 1.375 0.8125 0
v 1.375 0.8125 -3
v 1.375 0.1875 0
v 1.375 0.1875 -3
v -0.375 0.8125 0
v -0.375 0.8125 -3
v -0.375 0.1875 0
v -0.375 0.1875 -3
vt 0 0
vt 0 0.1562500000000001
vt 0.75 0.1562500000000001
vt 0.75 2.220446049250313e-16
vt 0.75 0
vt 0.75 0.1562500000000001
vt 0 0.1562500000000001
vt 0 2.220446049250313e-16
vt 0.75 0.15625
vt 0 0.15625
vt 0 0
vt 0.75 0
vt 0 0.15625
vt 0.75 0.15625
vt 0.75 0
vt 0 0
vt 0.75 0.15625
vt 0 0.15625
vt 0 0
vt 0.75 0
vt 0 0.15625
vt 0.75 0.15625
vt 0.75 0
vt 0 0
vt 0 0
vt 0 0.1562500000000001
vt 0.75 0.1562500000000001
vt 0.75 2.220446049250313e-16
vt 0.75 0
vt 0.75 0.1562500000000001
vt 0 0.1562500000000001
vt 0 2.220446049250313e-16
vn 0 -1 0
vn 0 1 0
vn -1 0 0
vn 1 0 0
vn -0.6139406135149205 0.7893522173763264 0
vn 0.7071067811865476 -0.7071067811865476 0
vn -0.7071067811865476 -0.7071067811865476 0
vn 0.6139406135149205 0.7893522173763264 0
usemtl m_4b41637a-506d-03c5-6389-f06f54572428
f 58/93/27 54/94/27 53/95/27 57/96/27
f 59/97/28 55/98/28 56/99/28 60/100/28
f 61/101/29 62/102/29 64/103/29 63/104/29
f 66/105/30 65/106/30 67/107/30 68/108/30
f 63/109/31 64/110/31 56/111/31 55/112/31
f 58/113/32 57/114/32 65/115/32 66/116/32
f 54/117/33 62/118/33 61/119/33 53/120/33
f 67/121/34 59/122/34 60/123/34 68/124/34
o cube
v 0.5 -0.375 0
v 0.5 -0.375 -1
v 0.5 -0.5 0
v 0.5 -0.5 -1
v -0.5 -0.375 -1
v -0.5 -0.375 0
v -0.5 -0.5 -1
v -0.5 -0.5 0
vt 0.71875 0.75
vt 0.71875 1
vt 0.75 1
vt 0.75 0.75
vt 0.75 1
vt 1 1
vt 1 0.75
vt 0.75 0.75
vt 0.75 1
vt 1 1
vt 1 0.75
vt 0.75 0.75
vn -1 0 0
vn 0 1 0
vn 0 -1 0
usemtl m_4b41637a-506d-03c5-6389-f06f54572428
f 75/128/35 76/127/35 74/126/35 73/125/35
f 74/132/36 69/131/36 70/130/36 73/129/36
f 75/136/37 72/135/37 71/134/37 76/133/37
o cube
v 0.5 -0.375 -1
v 0.5 -0.375 -2
v 0.5 -0.5 -1
v 0.5 -0.5 -2
v -0.5 -0.375 -2
v -0.5 -0.375 -1
v -0.5 -0.5 -2
v -0.5 -0.5 -1
vt 0.71875 0.75
vt 0.71875 1
vt 0.75 1
vt 0.75 0.75
vt 0.75 1
vt 1 1
vt 1 0.75
vt 0.75 0.75
vt 0.75 1
vt 1 1
vt 1 0.75
vt 0.75 0.75
vn -1 0 0
vn 0 1 0
vn 0 -1 0
usemtl m_4b41637a-506d-03c5-6389-f06f54572428
f 83/140/38 84/139/38 82/138/38 81/137/38
f 82/144/39 77/143/39 78/142/39 81/141/39
f 83/148/40 80/147/40 79/146/40 84/145/40
o cube
v 0.5 -0.375 -2
v 0.5 -0.375 -3
v 0.5 -0.5 -2
v 0.5 -0.5 -3
v -0.5 -0.375 -3
v -0.5 -0.375 -2
v -0.5 -0.5 -3
v -0.5 -0.5 -2
vt 0.71875 0.75
vt 0.71875 1
vt 0.75 1
vt 0.75 0.75
vt 0.75 1
vt 1 1
vt 1 0.75
vt 0.75 0.75
vt 0.75 1
vt 1 1
vt 1 0.75
vt 0.75 0.75
vn -1 0 0
vn 0 1 0
vn 0 -1 0
usemtl m_4b41637a-506d-03c5-6389-f06f54572428
f 91/152/41 92/151/41 90/150/41 89/149/41
f 90/156/42 85/155/42 86/154/42 89/153/42
f 91/160/43 88/159/43 87/158/43 92/157/43
o cube
v 0.5 -0.375 -2
v 0.5 -0.375 -1
v 0.5 -0.5 -2
v 0.5 -0.5 -1
v 1.5 -0.375 -1
v 1.5 -0.375 -2
v 1.5 -0.5 -1
v 1.5 -0.5 -2
vt 0.71875 0.75
vt 0.71875 1
vt 0.75 1
vt 0.75 0.75
vt 0.75 1
vt 1 1
vt 1 0.75
vt 0.75 0.75
vt 0.75 1
vt 1 1
vt 1 0.75
vt 0.75 0.75
vn 1 0 -1.2246467991473532e-16
vn 0 1 0
vn 0 -1 0
usemtl m_4b41637a-506d-03c5-6389-f06f54572428
f 99/164/44 100/163/44 98/162/44 97/161/44
f 98/168/45 93/167/45 94/166/45 97/165/45
f 99/172/46 96/171/46 95/170/46 100/169/46
o cube
v 0.4999999999999998 -0.375 -3
v 0.5 -0.375 -2
v 0.4999999999999998 -0.5 -3
v 0.5 -0.5 -2
v 1.5 -0.375 -2
v 1.4999999999999998 -0.375 -3
v 1.5 -0.5 -2
v 1.4999999999999998 -0.5 -3
vt 0.71875 0.75
vt 0.71875 1
vt 0.75 1
vt 0.75 0.75
vt 0.75 1
vt 1 1
vt 1 0.75
vt 0.75 0.75
vt 0.75 1
vt 1 1
vt 1 0.75
vt 0.75 0.75
vn 1 0 -1.2246467991473532e-16
vn 0 1 0
vn 0 -1 0
usemtl m_4b41637a-506d-03c5-6389-f06f54572428
f 107/176/47 108/175/47 106/174/47 105/173/47
f 106/180/48 101/179/48 102/178/48 105/177/48
f 107/184/49 104/183/49 103/182/49 108/181/49
o cube
v 0.5 -0.375 -1
v 0.5000000000000002 -0.375 0
v 0.5 -0.5 -1
v 0.5000000000000002 -0.5 0
v 1.5 -0.375 -2.220446049250313e-16
v 1.5 -0.375 -1
v 1.5 -0.5 -2.220446049250313e-16
v 1.5 -0.5 -1
vt 0.71875 0.75
vt 0.71875 1
vt 0.75 1
vt 0.75 0.75
vt 0.75 1
vt 1 1
vt 1 0.75
vt 0.75 0.75
vt 0.75 1
vt 1 1
vt 1 0.75
vt 0.75 0.75
vn 1 0 -1.2246467991473532e-16
vn 0 1 0
vn 0 -1 0
usemtl m_4b41637a-506d-03c5-6389-f06f54572428
f 115/188/50 116/187/50 114/186/50 113/185/50
f 114/192/51 109/191/51 110/190/51 113/189/51
f 115/196/52 112/195/52 111/194/52 116/193/52
o cube
v 0.9375 1.4999999999999996 0
v 0.9375 1.4999999999999996 -0.5
v 1.0625000000000002 -0.375 0
v 1.0625 -0.375 -0.5
v 0.0625 1.4999999999999996 0
v 0.0625 1.4999999999999996 -0.5
v -0.0625 -0.375 0
v -0.0625 -0.375 -0.5
v 1.5 0.9375 0
v 1.5 0.9375 -0.5
v 1.5 0.0625 0
v 1.5 0.0625 -0.5
v -0.5 0.9375 0
v -0.5 0.9375 -0.5
v -0.5 0.0625 0
v -0.5 0.0625 -0.5
v -0.5 0.0625 -1.5
v -0.0625 -0.375 -1.5
v 1.0625 -0.375 -1.5
v 1.5 0.0625 -1.5
v 1.0625 -0.375 -2.5
v 1.5 0.0625 -2.5
v -0.0625 -0.375 -2.5
v -0.5 0.0625 -2.5
v 1.0625000000000002 -0.375 -3
v 1.5 0.0625 -3
v -0.0625 -0.375 -3
v -0.5 0.0625 -3
v -0.5 0.4375 -0.5
v -0.5 0.4375 -1.5
v -0.5 0.4375 -2.5
v -0.5 0.4375 -3
v 1.5 0.4375 -1.5
v 1.5 0.4375 -0.5
v 1.5 0.4375 -3
v 1.5 0.4375 -2.5
v 0.5 0.9375 -0.5
v 0.5 1.4999999999999996 -0.5
v 0.5 0.9375 -0.5
v 0.5 0.0625 -0.5
vt 0.625 0.53125
vt 0.75 0.53125
vt 0.75 0.75
vt 0.625 0.75
vt 0.75 0.53125
vt 0.75 0.75
vt 0.625 0.75
vt 0.625 0.53125
vt 0.75 0.53125
vt 0.75 0.75
vt 0.625 0.75
vt 0.625 0.53125
vt 0.75 0.551125
vt 0.75 0.75
vt 0.625 0.75
vt 0.625 0.551125
vt 1 0.5015703125000001
vt 1 0.65625
vt 0.875 0.65625
vt 0.875 0.5015703125000001
vt 0.75 0.75
vt 0.625 0.75
vt 0.625 0.551125
vt 0.75 0.551125
vt 0.875 0.5015703125000001
vt 1 0.5015703125000001
vt 1 0.65625
vt 0.875 0.65625
vt 1 0.65625
vt 0.75 0.65625
vt 0.75 0.5015703125000001
vt 1 0.5015703125000001
vt 1 0.5015703125000001
vt 0.75 0.5015703125000001
vt 0.75 0.65625
vt 1 0.65625
vt 1 0.5015703125000001
vt 0.75 0.5015703125000001
vt 0.75 0.65625
vt 1 0.65625
vt 1 0.65625
vt 0.75 0.65625
vt 0.75 0.5015703125000001
vt 1 0.5015703125000001
vt 1 0.5015703125000001
vt 0.875 0.5015703125000001
vt 0.875 0.65625
vt 1 0.65625
vt 0.875 0.65625
vt 1 0.65625
vt 1 0.5015703125000001
vt 0.875 0.5015703125000001
vt 1 0.65625
vt 1 0.75
vt 0.75 0.75
vt 0.75 0.65625
vt 1 0.65625
vt 1 0.75
vt 0.75 0.75
vt 0.75 0.65625
vt 0.875 0.65625
vt 0.875 0.75
vt 1 0.75
vt 1 0.65625
vt 1 0.65625
vt 1 0.75
vt 0.75 0.75
vt 0.75 0.65625
vt 1 0.65625
vt 1 0.75
vt 0.75 0.75
vt 0.75 0.65625
vt 1 0.65625
vt 1 0.75
vt 0.875 0.75
vt 0.875 0.65625
vt 0.25 0.359375
vt 0 0.359375
vt 0 0.5
vt 0.109375 0.5
vt 0.109375 0.5
vt 0 0.5
vt 0 0.359375
vt 0.25 0.359375
vt 0.25 0.5
vt 0.5 0.5
vt 0.5 0.28125
vt 0.25 0.28125
vt 0.25 0.28125
vt 0.5 0.28125
vt 0.5 0.5
vt 0.25 0.5
vn 0 1 0
vn 1 0 0
vn -1 0 0
vn 0.7071067811865472 0.7071067811865478 0
vn -0.7071067811865476 -0.7071067811865476 0
vn -0.7071067811865472 0.7071067811865478 0
vn 0.7071067811865478 -0.7071067811865475 0
vn -0.7071067811865476 -0.7071067811865476 0
vn 0.7071067811865476 -0.7071067811865476 0
vn 0.7071067811865476 -0.7071067811865476 0
vn -0.7071067811865476 -0.7071067811865476 0
vn 0.7071067811865477 -0.7071067811865474 3.1401849173675523e-16
vn -0.7071067811865476 -0.7071067811865476 0
vn -1 0 0
vn -1 0 0
vn -1 0 0
vn 1 0 0
vn 1 0 0
vn 1 0 0
vn 0 0 -1
vn 0 0 -1
vn 0 0 -1
vn 0 0 -1
usemtl m_4b41637a-506d-03c5-6389-f06f54572428
f 117/197/53 118/198/53 122/199/53 121/200/53
f 128/201/54 126/202/54 125/203/54 127/204/54
f 131/205/55 129/206/55 130/207/55 132/208/55
f 126/209/56 118/210/56 117/211/56 125/212/56
f 123/213/57 131/214/57 132/215/57 124/216/57
f 121/217/58 122/218/58 130/219/58 129/220/58
f 128/221/59 127/222/59 119/223/59 120/224/59
f 132/225/60 133/226/60 134/227/60 124/228/60
f 120/229/61 135/230/61 136/231/61 128/232/61
f 135/233/62 137/234/62 138/235/62 136/236/62
f 133/237/63 140/238/63 139/239/63 134/240/63
f 137/241/64 141/242/64 142/243/64 138/244/64
f 140/245/65 144/246/65 143/247/65 139/248/65
f 132/249/66 145/250/66 146/251/66 133/252/66
f 133/253/67 146/254/67 147/255/67 140/256/67
f 140/257/68 147/258/68 148/259/68 144/260/68
f 136/261/69 149/262/69 150/263/69 128/264/69
f 138/265/70 152/266/70 149/267/70 136/268/70
f 142/269/71 151/270/71 152/271/71 138/272/71
f 126/273/72 153/274/72 154/275/72 118/276/72
f 122/277/73 154/278/73 153/279/73 130/280/73
f 130/281/74 155/282/74 156/283/74 132/284/74
f 128/285/75 156/286/75 155/287/75 126/288/75
o cube
v 1 1.5 -3
v 1 1.5 -3.5
v 1 0.5 -3
v 1 0.5 -3.5
v 0.5 1.5 -3
v 0.5 1.5 -3.5
v 0.5 0.5 -3
v 0.5 0.5 -3.5
v 1.5 1 -3.5
v 1.5 1 -3
v 1.5 0.5 -3.5
v 1.5 0.5 -3
v -0.5 1 -3.5
v -0.5 1 -3
v 0 1.5 -3
v 0 1.5 -3.5
vt 0.296875 0.5
vt 0.171875 0.5
vt 0.171875 0.625
vt 0.296875 0.625
vt 0.375 0.625
vt 0.375 0.75
vt 0.25 0.75
vt 0.25 0.625
vt 0.375 0.75
vt 0.375 1
vt 0.25 1
vt 0.25 0.75
vt 0.375 0.75
vt 0.375 1
vt 0.25 1
vt 0.25 0.75
vt 0.5 0.875
vt 0.5 0.75
vt 0.375 0.75
vt 0.375 1
vt 0 0.625
vt 0 0.5
vt 0.171875 0.5
vt 0.171875 0.625
vt 0.5 0.75
vt 0.5 0.875
vt 0.375 1
vt 0.375 0.75
vt 0.046875 0.7391304347826086
vt 0.046875 0.9130434782608696
vt 0.03125 0.9130434782608696
vt 0.03125 0.7391304347826086
vt 0 0.625
vt 0 0.5
vt 0.171875 0.5
vt 0.171875 0.625
vn 1 0 0
vn 0 1 0
vn 0 0 1
vn 0 0 -1
vn 0 0 -1
vn 0.7071067811865476 0.7071067811865476 0
vn 0 0 1
vn 0 -1 0
vn -0.7071067811865476 0.7071067811865476 0
usemtl m_4b41637a-506d-03c5-6389-f06f54572428
f 167/289/76 165/290/76 166/291/76 168/292/76
f 157/293/77 158/294/77 162/295/77 161/296/77
f 159/297/78 157/298/78 161/299/78 163/300/78
f 164/301/79 162/302/79 158/303/79 160/304/79
f 165/305/80 167/306/80 160/307/80 158/308/80
f 166/309/81 165/310/81 158/311/81 157/312/81
f 168/313/82 166/314/82 157/315/82 159/316/82
usemtl none
f 167/317/83 168/318/83 159/319/83 160/320/83
usemtl m_4b41637a-506d-03c5-6389-f06f54572428
f 169/321/84 170/322/84 171/323/84 172/324/84
o cube
v 0.5 1.5 -3
v 0.5 1.5 -3.5
v 0.5 0.5 -3
v 0.5 0.5 -3.5
v 0 1.5 -3
v 0 1.5 -3.5
v 0 0.5 -3
v 0 0.5 -3.5
v -0.5 1 -3
v -0.5 1 -3.5
v -0.5 0.5 -3
v -0.5 0.5 -3.5
vt 0.296875 0.5
vt 0.171875 0.5
vt 0.171875 0.625
vt 0.296875 0.625
vt 0.5 0.625
vt 0.5 0.75
vt 0.375 0.75
vt 0.375 0.625
vt 0.375 0.75
vt 0.375 1
vt 0.25 1
vt 0.25 0.75
vt 0.25 0.75
vt 0.25 1
vt 0.375 1
vt 0.375 0.75
vt 0.5 0.875
vt 0.5 0.75
vt 0.375 0.75
vt 0.375 1
vt 0 0.625
vt 0 0.5
vt 0.171875 0.5
vt 0.171875 0.625
vt 0.5 0.75
vt 0.5 0.875
vt 0.375 1
vt 0.375 0.75
vt 0.15625 0.9375
vt 0.15625 0.8125
vt 0.171875 0.8125
vt 0.171875 0.9375
vn -1 0 0
vn 0 1 0
vn 0 0 1
vn 0 0 -1
vn 0 0 1
vn -0.7071067811865476 0.7071067811865476 0
vn 0 0 -1
vn 0 -1 0
usemtl m_4b41637a-506d-03c5-6389-f06f54572428
f 183/325/85 181/326/85 182/327/85 184/328/85
f 173/329/86 174/330/86 178/331/86 177/332/86
f 175/333/87 173/334/87 177/335/87 179/336/87
f 180/337/88 178/338/88 174/339/88 176/340/88
f 181/341/89 183/342/89 179/343/89 177/344/89
f 182/345/90 181/346/90 177/347/90 178/348/90
f 184/349/91 182/350/91 178/351/91 180/352/91
f 183/353/92 184/354/92 180/355/92 179/356/92
o cube
v 1.5 0.5 -3
v 1.5 0.5 -3.5
v 1.5 -0.5 -3
v 1.5 -0.5 -3.5
v 0.5 0.5 -3.5
v 0.5 0.5 -3
v 0.5 -0.5 -3.5
v 0.5 -0.5 -3
vt 0 1
vt 0.25 1
vt 0.25 0.75
vt 0 0.75
vt 0.25 0.625
vt 0.25 0.75
vt 0 0.75
vt 0 0.625
vt 0.25 0.75
vt 0 0.75
vt 0 1
vt 0.25 1
vt 0.5 0.75
vt 0.5 1
vt 0.625 1
vt 0.625 0.75
vn 0 0 -1
vn 1 0 0
vn 0 0 1
vn 0 -1 0
usemtl m_4b41637a-506d-03c5-6389-f06f54572428
f 188/360/93 191/359/93 189/358/93 186/357/93
f 187/364/94 188/363/94 186/362/94 185/361/94
f 192/368/95 187/367/95 185/366/95 190/365/95
f 191/372/96 188/371/96 187/370/96 192/369/96
o cube
v 0.5 0.5 -3
v 0.5 0.5 -3.5
v 0.5 -0.5 -3
v 0.5 -0.5 -3.5
v -0.5 0.5 -3.5
v -0.5 0.5 -3
v -0.5 -0.5 -3.5
v -0.5 -0.5 -3
vt 0.25 1
vt 0 1
vt 0 0.75
vt 0.25 0.75
vt 0 0.75
vt 0.25 0.75
vt 0.25 1
vt 0 1
vt 0.25 0.625
vt 0.25 0.75
vt 0 0.75
vt 0 0.625
vt 0.5 1
vt 0.5 0.75
vt 0.625 0.75
vt 0.625 1
vn 0 0 -1
vn 0 0 1
vn -1 0 0
vn 0 -1 0
usemtl m_4b41637a-506d-03c5-6389-f06f54572428
f 196/376/97 199/375/97 197/374/97 194/373/97
f 200/380/98 195/379/98 193/378/98 198/377/98
f 199/384/99 200/383/99 198/382/99 197/381/99
f 199/388/100 196/387/100 195/386/100 200/385/100
o cube
v 0.5 0.5 0.5
v 0.5 0.5 0
v 0.5 -0.5 0.5
v 0.5 -0.5 0
v -0.5 0.5 0
v -0.5 0.5 0.5
v -0.5 -0.5 0
v -0.5 -0.5 0.5
vt 0.25 0.75
vt 0 0.75
vt 0 1
vt 0.25 1
vt 0 1
vt 0.25 1
vt 0.25 0.75
vt 0 0.75
vt 0.25 0.625
vt 0.25 0.75
vt 0 0.75
vt 0 0.625
vt 0.5 1
vt 0.5 0.75
vt 0.625 0.75
vt 0.625 1
vn 0 0 -1
vn 0 0 1
vn -1 0 0
vn 0 -1 0
usemtl m_4b41637a-506d-03c5-6389-f06f54572428
f 204/392/101 207/391/101 205/390/101 202/389/101
f 208/396/102 203/395/102 201/394/102 206/393/102
f 207/400/103 208/399/103 206/398/103 205/397/103
f 207/404/104 204/403/104 203/402/104 208/401/104
o cube
v 1.5 0.5 0.5
v 1.5 0.5 0
v 1.5 -0.5 0.5
v 1.5 -0.5 0
v 0.5 0.5 0
v 0.5 0.5 0.5
v 0.5 -0.5 0
v 0.5 -0.5 0.5
vt 0 0.75
vt 0.25 0.75
vt 0.25 1
vt 0 1
vt 0.25 0.625
vt 0.25 0.75
vt 0 0.75
vt 0 0.625
vt 0.25 1
vt 0 1
vt 0 0.75
vt 0.25 0.75
vt 0.5 0.75
vt 0.5 1
vt 0.625 1
vt 0.625 0.75
vn 0 0 -1
vn 1 0 0
vn 0 0 1
vn 0 -1 0
usemtl m_4b41637a-506d-03c5-6389-f06f54572428
f 212/408/105 215/407/105 213/406/105 210/405/105
f 211/412/106 212/411/106 210/410/106 209/409/106
f 216/416/107 211/415/107 209/414/107 214/413/107
f 215/420/108 212/419/108 211/418/108 216/417/108
o cube
v 0.5 1.5 0.5
v 0.5 1.5 0
v 0.5 0.5 0.5
v 0.5 0.5 0
v 0 1.5 0.5
v 0 1.5 0
v 0 0.5 0.5
v 0 0.5 0
v -0.5 1 0.5
v -0.5 1 0
v -0.5 0.5 0.5
v -0.5 0.5 0
vt 0.296875 0.5
vt 0.171875 0.5
vt 0.171875 0.625
vt 0.296875 0.625
vt 0.5 0.625
vt 0.5 0.75
vt 0.375 0.75
vt 0.375 0.625
vt 0.375 0.75
vt 0.375 1
vt 0.25 1
vt 0.25 0.75
vt 0.375 0.75
vt 0.375 1
vt 0.25 1
vt 0.25 0.75
vt 0.5 0.875
vt 0.5 0.75
vt 0.375 0.75
vt 0.375 1
vt 0 0.625
vt 0 0.5
vt 0.171875 0.5
vt 0.171875 0.625
vt 0.5 0.75
vt 0.5 0.875
vt 0.375 1
vt 0.375 0.75
vt 0.15625 0.9375
vt 0.15625 0.8125
vt 0.171875 0.8125
vt 0.171875 0.9375
vn -1 0 0
vn 0 1 0
vn 0 0 1
vn 0 0 -1
vn 0 0 1
vn -0.7071067811865476 0.7071067811865476 0
vn 0 0 -1
vn 0 -1 0
usemtl m_4b41637a-506d-03c5-6389-f06f54572428
f 227/421/109 225/422/109 226/423/109 228/424/109
f 217/425/110 218/426/110 222/427/110 221/428/110
f 219/429/111 217/430/111 221/431/111 223/432/111
f 224/433/112 222/434/112 218/435/112 220/436/112
f 225/437/113 227/438/113 223/439/113 221/440/113
f 226/441/114 225/442/114 221/443/114 222/444/114
f 228/445/115 226/446/115 222/447/115 224/448/115
f 227/449/116 228/450/116 224/451/116 223/452/116
o cube
v 1 1.5 0.5
v 1 1.5 0
v 1 0.5 0.5
v 1 0.5 0
v 0.5 1.5 0.5
v 0.5 1.5 0
v 0.5 0.5 0.5
v 0.5 0.5 0
v 1.5 1 0
v 1.5 1 0.5
v 1.5 0.5 0
v 1.5 0.5 0.5
v -0.5 1 0
v -0.5 1 0.5
v 0 1.5 0.5
v 0 1.5 0
vt 0.296875 0.5
vt 0.171875 0.5
vt 0.171875 0.625
vt 0.296875 0.625
vt 0.375 0.625
vt 0.375 0.75
vt 0.25 0.75
vt 0.25 0.625
vt 0.25 0.75
vt 0.25 1
vt 0.375 1
vt 0.375 0.75
vt 0.375 0.75
vt 0.375 1
vt 0.25 1
vt 0.25 0.75
vt 0.5 0.875
vt 0.5 0.75
vt 0.375 0.75
vt 0.375 1
vt 0 0.625
vt 0 0.5
vt 0.171875 0.5
vt 0.171875 0.625
vt 0.5 0.75
vt 0.5 0.875
vt 0.375 1
vt 0.375 0.75
vt 0.046875 0.7391304347826086
vt 0.046875 0.9130434782608696
vt 0.03125 0.9130434782608696
vt 0.03125 0.7391304347826086
vt 0 0.625
vt 0 0.5
vt 0.171875 0.5
vt 0.171875 0.625
vn 1 0 0
vn 0 1 0
vn 0 0 1
vn 0 0 -1
vn 0 0 -1
vn 0.7071067811865476 0.7071067811865476 0
vn 0 0 1
vn 0 -1 0
vn -0.7071067811865476 0.7071067811865476 0
usemtl m_4b41637a-506d-03c5-6389-f06f54572428
f 239/453/117 237/454/117 238/455/117 240/456/117
f 229/457/118 230/458/118 234/459/118 233/460/118
f 231/461/119 229/462/119 233/463/119 235/464/119
f 236/465/120 234/466/120 230/467/120 232/468/120
f 237/469/121 239/470/121 232/471/121 230/472/121
f 238/473/122 237/474/122 230/475/122 229/476/122
f 240/477/123 238/478/123 229/479/123 231/480/123
usemtl none
f 239/481/124 240/482/124 231/483/124 232/484/124
usemtl m_4b41637a-506d-03c5-6389-f06f54572428
f 241/485/125 242/486/125 243/487/125 244/488/125