# Made in Blockbench 4.9.4
mtllib large_trommel_mesh.mtl

o cube
v 0.8125 1.375 0
v 0.8125 1.375 -3
v 0.8125 -0.375 0
v 0.8125 -0.375 -3
v 0.1875 1.375 0
v 0.1875 1.375 -3
v 0.1875 -0.375 0
v 0.1875 -0.375 -3
v 1.375 0.8125 0
v 1.375 0.8125 -3
v 1.375 0.1875 0
v 1.375 0.1875 -3
v -0.375 0.8125 0
v -0.375 0.8125 -3
v -0.375 0.1875 0
v -0.375 0.1875 -3
vt 0.75 0.1562500000000001
vt 0 0.1562500000000001
vt 0 0
vt 0.75 2.220446049250313e-16
vt 0 0.1562500000000001
vt 0.75 0.1562500000000001
vt 0.75 0
vt 0 2.220446049250313e-16
vt 0 0
vt 0 0.15625
vt 0.75 0.15625
vt 0.75 0
vt 0.75 0
vt 0.75 0.15625
vt 0 0.15625
vt 0 0
vt 0 0
vt 0 0.15625
vt 0.75 0.15625
vt 0.75 0
vt 0.75 0
vt 0.75 0.15625
vt 0 0.15625
vt 0 0
vt 0.75 0.1562500000000001
vt 0 0.1562500000000001
vt 0 0
vt 0.75 2.220446049250313e-16
vt 0 0.1562500000000001
vt 0.75 0.1562500000000001
vt 0.75 0
vt 0 2.220446049250313e-16
vn 0 1 0
vn 0 -1 0
vn 1 0 0
vn -1 0 0
vn 0.7071067811865476 -0.7071067811865476 0
vn -0.7071067811865476 0.7071067811865476 0
vn 0.7071067811865476 0.7071067811865476 0
vn -0.7071067811865476 -0.7071067811865476 0
usemtl m_4b41637a-506d-03c5-6389-f06f54572428
f 1/1/1 2/2/1 6/3/1 5/4/1
f 4/5/2 3/6/2 7/7/2 8/8/2
f 12/9/3 10/10/3 9/11/3 11/12/3
f 15/13/4 13/14/4 14/15/4 16/16/4
f 4/17/5 12/18/5 11/19/5 3/20/5
f 13/21/6 5/22/6 6/23/6 14/24/6
f 9/25/7 10/26/7 2/27/7 1/28/7
f 8/29/8 7/30/8 15/31/8 16/32/8
o cube
v 0.8125 1.375 0
v 0.8125 1.375 -3
v 0.8125 -0.375 0
v 0.8125 -0.375 -3
v 0.1875 1.375 0
v 0.1875 1.375 -3
v 0.1875 -0.375 0
v 0.1875 -0.375 -3
v 1.375 0.8125 0
v 1.375 0.8125 -3
v 1.375 0.1875 0
v 1.375 0.1875 -3
v -0.375 0.8125 0
v -0.375 0.8125 -3
v -0.375 0.1875 0
v -0.375 0.1875 -3
vt 0 0
vt 0 0.1562500000000001
vt 0.75 0.1562500000000001
vt 0.75 2.220446049250313e-16
vt 0.75 0
vt 0.75 0.1562500000000001
vt 0 0.1562500000000001
vt 0 2.220446049250313e-16
vt 0.75 0.15625
vt 0 0.15625
vt 0 0
vt 0.75 0
vt 0 0.15625
vt 0.75 0.15625
vt 0.75 0
vt 0 0
vt 0.75 0.15625
vt 0 0.15625
vt 0 0
vt 0.75 0
vt 0 0.15625
vt 0.75 0.15625
vt 0.75 0
vt 0 0
vt 0 0
vt 0 0.1562500000000001
vt 0.75 0.1562500000000001
vt 0.75 2.220446049250313e-16
vt 0.75 0
vt 0.75 0.1562500000000001
vt 0 0.1562500000000001
vt 0 2.220446049250313e-16
vn 0 -1 0
vn 0 1 0
vn -1 0 0
vn 1 0 0
vn -0.7071067811865476 0.7071067811865476 0
vn 0.7071067811865476 -0.7071067811865476 0
vn -0.7071067811865476 -0.7071067811865476 0
vn 0.7071067811865476 0.7071067811865476 0
usemtl m_4b41637a-506d-03c5-6389-f06f54572428
f 22/33/9 18/34/9 17/35/9 21/36/9
f 23/37/10 19/38/10 20/39/10 24/40/10
f 25/41/11 26/42/11 28/43/11 27/44/11
f 30/45/12 29/46/12 31/47/12 32/48/12
f 27/49/13 28/50/13 20/51/13 19/52/13
f 22/53/14 21/54/14 29/55/14 30/56/14
f 18/57/15 26/58/15 25/59/15 17/60/15
f 31/61/16 23/62/16 24/63/16 32/64/16