# Made in Blockbench 4.10.1
mtllib charnel_pump_plunger.mtl

o cube
v 0.5 0.25 -0.9375
v 0.9375 0.25 0.5
v 0.9375 0.25 -0.5
v 0.9375 -0.25 0.5
v 0.9375 -0.25 -0.5
v -0.9375 0.25 0.5
v -0.9375 0.25 -0.5
v -0.9375 -0.25 0.5
v -0.9375 -0.25 -0.5
v 0.5 0.25 0.9375
v -0.5 0.25 0.9375
v 0.5 -0.25 0.9375
v -0.5 -0.25 0.9375
v -0.5 0.25 -0.9375
v -0.5 -0.25 -0.9375
v 0.5 -0.25 -0.9375
vt 0.46875 0.234375
vt 0.46875 0.484375
vt 0 0.484375
vt 0 0.234375
vt 0.25 0.109375
vt 0.25 0.234375
vt 0 0.234375
vt 0 0.109375
vt 0.25 0.109375
vt 0.25 0.234375
vt 0 0.234375
vt 0 0.109375
vt 0.25 0.234375
vt 0.25 0.109375
vt 0.40625 0.109375
vt 0.40625 0.234375
vt 0.25 0.234375
vt 0.25 0.109375
vt 0.40625 0.109375
vt 0.40625 0.234375
vt 0.359375 0.59375
vt 0.109375 0.59375
vt 0 0.484375
vt 0.46875 0.484375
vt 0.25 0.234375
vt 0.25 0.109375
vt 0.40625 0.109375
vt 0.40625 0.234375
vt 0.25 0.234375
vt 0.25 0.109375
vt 0.40625 0.109375
vt 0.40625 0.234375
vt 0.359375 0.59375
vt 0.109375 0.59375
vt 0 0.484375
vt 0.46875 0.484375
vt 0.359375 0.59375
vt 0.109375 0.59375
vt 0 0.484375
vt 0.46875 0.484375
vt 0.359375 0.59375
vt 0.109375 0.59375
vt 0 0.484375
vt 0.46875 0.484375
vt 0.46875 0.234375
vt 0.46875 0.484375
vt 0 0.484375
vt 0 0.234375
vn 0 -1 0
vn 0 0 1
vn 0 0 -1
vn 0.7071067811865476 0 0.7071067811865476
vn -0.7071067811865476 0 0.7071067811865476
vn 0 -1 0
vn -0.7071067811865476 0 -0.7071067811865476
vn 0.7071067811865476 0 -0.7071067811865476
vn 0 -1 0
vn 0 1 0
vn 0 1 0
vn 0 1 0
usemtl m_ed6657f6-98be-38d0-67b4-58bda411672a
f 5/1/1 4/2/1 8/3/1 9/4/1
f 12/5/2 10/6/2 11/7/2 13/8/2
f 15/9/3 14/10/3 1/11/3 16/12/3
f 10/13/4 12/14/4 4/15/4 2/16/4
f 13/17/5 11/18/5 6/19/5 8/20/5
f 12/21/6 13/22/6 8/23/6 4/24/6
f 14/25/7 15/26/7 9/27/7 7/28/7
f 16/29/8 1/30/8 3/31/8 5/32/8
f 15/33/9 16/34/9 5/35/9 9/36/9
f 11/37/10 10/38/10 2/39/10 6/40/10
f 1/41/11 14/42/11 7/43/11 3/44/11
f 2/45/12 3/46/12 7/47/12 6/48/12
o cube
v -1 0.5 0.25
v -1 0.5 -0.25
v -1 -0.5 0.25
v -1 -0.5 -0.25
v -1.5 0.5 -0.25
v -1.5 0.5 0.25
v -1.5 -0.5 -0.25
v -1.5 -0.5 0.25
vt 0.875 0.25
vt 1 0.25
vt 1 0
vt 0.875 0
vt 0.875 0.25
vt 1 0.25
vt 1 0
vt 0.875 0
vt 0.75 0.25
vt 0.875 0.25
vt 0.875 0
vt 0.75 0
vt 0.875 0.375
vt 1 0.375
vt 1 0.25
vt 0.875 0.25
vt 0.875 0.375
vt 1 0.375
vt 1 0.25
vt 0.875 0.25
vn 0 0 -1
vn 0 0 1
vn -1 0 0
vn 0 1 0
vn 0 -1 0
usemtl m_ed6657f6-98be-38d0-67b4-58bda411672a
f 20/52/13 23/51/13 21/50/13 18/49/13
f 24/56/14 19/55/14 17/54/14 22/53/14
f 23/60/15 24/59/15 22/58/15 21/57/15
f 22/64/16 17/63/16 18/62/16 21/61/16
f 23/68/17 20/67/17 19/66/17 24/65/17
o cube
v 1.5 0.5 0.25
v 1.5 0.5 -0.25
v 1.5 -0.5 0.25
v 1.5 -0.5 -0.25
v 1 0.5 -0.25
v 1 0.5 0.25
v 1 -0.5 -0.25
v 1 -0.5 0.25
vt 0.875 0.25
vt 1 0.25
vt 1 0
vt 0.875 0
vt 0.75 0.25
vt 0.875 0.25
vt 0.875 0
vt 0.75 0
vt 0.875 0.25
vt 1 0.25
vt 1 0
vt 0.875 0
vt 0.875 0.375
vt 1 0.375
vt 1 0.25
vt 0.875 0.25
vt 0.875 0.375
vt 1 0.375
vt 1 0.25
vt 0.875 0.25
vn 0 0 -1
vn 1 0 0
vn 0 0 1
vn 0 1 0
vn 0 -1 0
usemtl m_ed6657f6-98be-38d0-67b4-58bda411672a
f 28/72/18 31/71/18 29/70/18 26/69/18
f 27/76/19 28/75/19 26/74/19 25/73/19
f 32/80/20 27/79/20 25/78/20 30/77/20
f 30/84/21 25/83/21 26/82/21 29/81/21
f 31/88/22 28/87/22 27/86/22 32/85/22